<svg width="668" height="200" viewBox="0 0 668 200" fill="none" xmlns="http://www.w3.org/2000/svg">
<path d="M65 165H663" stroke="black"/>
<path d="M76.96 171V165" stroke="black"/>
<path d="M76.96 191.639C76.318 191.639 75.7711 191.465 75.3194 191.115C74.8677 190.763 74.5225 190.253 74.2839 189.585C74.0452 188.915 73.9259 188.105 73.9259 187.156C73.9259 186.213 74.0452 185.408 74.2839 184.74C74.5253 184.07 74.8719 183.558 75.3236 183.206C75.7782 182.851 76.3236 182.673 76.96 182.673C77.5964 182.673 78.1404 182.851 78.5921 183.206C79.0466 183.558 79.3932 184.07 79.6319 184.74C79.8734 185.408 79.9941 186.213 79.9941 187.156C79.9941 188.105 79.8748 188.915 79.6361 189.585C79.3975 190.253 79.0523 190.763 78.6006 191.115C78.1489 191.465 77.602 191.639 76.96 191.639ZM76.96 190.702C77.5964 190.702 78.0907 190.395 78.443 189.781C78.7952 189.168 78.9714 188.293 78.9714 187.156C78.9714 186.401 78.8904 185.757 78.7285 185.226C78.5694 184.695 78.3393 184.29 78.0381 184.011C77.7398 183.733 77.3805 183.594 76.96 183.594C76.3293 183.594 75.8364 183.905 75.4813 184.527C75.1262 185.146 74.9486 186.023 74.9486 187.156C74.9486 187.912 75.0282 188.554 75.1873 189.083C75.3464 189.611 75.5751 190.013 75.8734 190.288C76.1745 190.564 76.5367 190.702 76.96 190.702Z" fill="black"/>
<path d="M100.88 171V165" stroke="black"/>
<path d="M102.063 182.793V191.52H101.006V183.901H100.955L98.8239 185.315V184.242L101.006 182.793H102.063Z" fill="black"/>
<path d="M124.8 171V165" stroke="black"/>
<path d="M122.071 191.52V190.753L124.951 187.6C125.289 187.23 125.568 186.909 125.787 186.636C126.005 186.361 126.167 186.102 126.272 185.861C126.38 185.617 126.434 185.361 126.434 185.094C126.434 184.787 126.36 184.521 126.213 184.297C126.068 184.073 125.869 183.899 125.616 183.777C125.363 183.655 125.079 183.594 124.764 183.594C124.429 183.594 124.136 183.663 123.886 183.803C123.639 183.939 123.447 184.131 123.311 184.378C123.177 184.625 123.11 184.915 123.11 185.247H122.105C122.105 184.736 122.223 184.287 122.458 183.901C122.694 183.514 123.015 183.213 123.421 182.997C123.831 182.781 124.289 182.673 124.798 182.673C125.309 182.673 125.762 182.781 126.157 182.997C126.552 183.213 126.862 183.504 127.086 183.871C127.311 184.237 127.423 184.645 127.423 185.094C127.423 185.415 127.365 185.729 127.248 186.036C127.135 186.34 126.936 186.679 126.652 187.054C126.37 187.426 125.98 187.881 125.48 188.418L123.519 190.514V190.583H127.576V191.52H122.071Z" fill="black"/>
<path d="M148.72 171V165" stroke="black"/>
<path d="M148.752 191.639C148.189 191.639 147.688 191.543 147.248 191.35C146.81 191.156 146.462 190.888 146.204 190.544C145.948 190.198 145.809 189.796 145.786 189.338H146.86C146.883 189.619 146.979 189.862 147.15 190.067C147.32 190.269 147.543 190.425 147.819 190.536C148.094 190.646 148.4 190.702 148.735 190.702C149.11 190.702 149.442 190.636 149.732 190.506C150.022 190.375 150.249 190.193 150.414 189.96C150.579 189.727 150.661 189.458 150.661 189.151C150.661 188.83 150.582 188.547 150.422 188.303C150.263 188.056 150.03 187.862 149.724 187.723C149.417 187.584 149.042 187.514 148.599 187.514H147.9V186.577H148.599C148.945 186.577 149.249 186.514 149.51 186.389C149.775 186.264 149.981 186.088 150.128 185.861C150.279 185.634 150.354 185.367 150.354 185.06C150.354 184.764 150.289 184.507 150.158 184.288C150.028 184.07 149.843 183.899 149.604 183.777C149.368 183.655 149.09 183.594 148.769 183.594C148.468 183.594 148.184 183.649 147.917 183.76C147.653 183.868 147.437 184.026 147.269 184.233C147.101 184.438 147.01 184.685 146.996 184.975H145.974C145.991 184.517 146.128 184.117 146.387 183.773C146.645 183.426 146.983 183.156 147.401 182.963C147.822 182.77 148.283 182.673 148.786 182.673C149.326 182.673 149.789 182.783 150.175 183.002C150.562 183.217 150.858 183.503 151.066 183.858C151.273 184.213 151.377 184.597 151.377 185.009C151.377 185.5 151.248 185.919 150.989 186.266C150.733 186.612 150.385 186.852 149.945 186.986V187.054C150.496 187.145 150.927 187.379 151.236 187.757C151.546 188.132 151.701 188.597 151.701 189.151C151.701 189.625 151.572 190.051 151.313 190.429C151.057 190.804 150.708 191.1 150.265 191.315C149.822 191.531 149.317 191.639 148.752 191.639Z" fill="black"/>
<path d="M172.64 171V165" stroke="black"/>
<path d="M169.489 189.73V188.861L173.324 182.793H173.955V184.139H173.529L170.631 188.725V188.793H175.796V189.73H169.489ZM173.597 191.52V189.466V189.061V182.793H174.603V191.52H173.597Z" fill="black"/>
<path d="M196.56 171V165" stroke="black"/>
<path d="M196.54 191.639C196.04 191.639 195.59 191.54 195.189 191.341C194.789 191.142 194.468 190.869 194.226 190.523C193.985 190.176 193.853 189.781 193.83 189.338H194.853C194.893 189.733 195.072 190.06 195.39 190.318C195.711 190.574 196.094 190.702 196.54 190.702C196.898 190.702 197.216 190.618 197.495 190.45C197.776 190.283 197.996 190.053 198.155 189.76C198.317 189.465 198.398 189.131 198.398 188.759C198.398 188.378 198.314 188.038 198.147 187.74C197.982 187.439 197.755 187.202 197.465 187.029C197.175 186.855 196.844 186.767 196.472 186.764C196.205 186.761 195.931 186.803 195.65 186.888C195.368 186.97 195.137 187.077 194.955 187.208L193.966 187.088L194.495 182.793H199.029V183.73H195.381L195.074 186.304H195.126C195.304 186.162 195.529 186.044 195.799 185.95C196.069 185.857 196.35 185.81 196.643 185.81C197.177 185.81 197.653 185.938 198.07 186.193C198.491 186.446 198.82 186.793 199.059 187.233C199.3 187.673 199.421 188.176 199.421 188.742C199.421 189.298 199.296 189.796 199.046 190.233C198.799 190.668 198.458 191.011 198.023 191.264C197.589 191.514 197.094 191.639 196.54 191.639Z" fill="black"/>
<path d="M220.48 171V165" stroke="black"/>
<path d="M220.537 191.639C220.179 191.634 219.821 191.565 219.463 191.435C219.105 191.304 218.778 191.084 218.483 190.774C218.188 190.462 217.95 190.04 217.771 189.509C217.592 188.975 217.503 188.304 217.503 187.497C217.503 186.725 217.575 186.04 217.72 185.443C217.865 184.844 218.075 184.34 218.351 183.931C218.626 183.519 218.959 183.206 219.348 182.993C219.74 182.78 220.182 182.673 220.673 182.673C221.162 182.673 221.597 182.771 221.977 182.967C222.361 183.161 222.673 183.431 222.915 183.777C223.156 184.124 223.313 184.523 223.384 184.975H222.344C222.247 184.583 222.06 184.257 221.781 183.999C221.503 183.74 221.134 183.611 220.673 183.611C219.997 183.611 219.465 183.905 219.075 184.493C218.689 185.081 218.494 185.906 218.492 186.969H218.56C218.719 186.727 218.908 186.521 219.126 186.351C219.348 186.178 219.592 186.044 219.859 185.95C220.126 185.857 220.409 185.81 220.707 185.81C221.207 185.81 221.665 185.935 222.08 186.185C222.494 186.432 222.827 186.774 223.077 187.212C223.327 187.646 223.452 188.145 223.452 188.708C223.452 189.247 223.331 189.742 223.09 190.19C222.848 190.636 222.509 190.992 222.071 191.256C221.636 191.517 221.125 191.645 220.537 191.639ZM220.537 190.702C220.895 190.702 221.216 190.612 221.5 190.433C221.787 190.254 222.013 190.014 222.178 189.713C222.345 189.412 222.429 189.077 222.429 188.708C222.429 188.347 222.348 188.019 222.186 187.723C222.027 187.425 221.807 187.188 221.526 187.011C221.247 186.835 220.929 186.747 220.571 186.747C220.301 186.747 220.05 186.801 219.817 186.909C219.584 187.014 219.379 187.159 219.203 187.344C219.03 187.529 218.894 187.74 218.794 187.979C218.695 188.215 218.645 188.463 218.645 188.725C218.645 189.071 218.726 189.395 218.888 189.696C219.053 189.997 219.277 190.24 219.561 190.425C219.848 190.609 220.173 190.702 220.537 190.702Z" fill="black"/>
<path d="M244.4 171V165" stroke="black"/>
<path d="M242.148 191.52L246.052 183.798V183.73H241.552V182.793H247.143V183.781L243.256 191.52H242.148Z" fill="black"/>
<path d="M268.32 171V165" stroke="black"/>
<path d="M268.322 191.639C267.736 191.639 267.219 191.536 266.77 191.328C266.324 191.118 265.976 190.83 265.726 190.463C265.476 190.094 265.353 189.673 265.356 189.202C265.353 188.833 265.425 188.492 265.573 188.179C265.721 187.864 265.922 187.601 266.178 187.391C266.437 187.178 266.725 187.043 267.043 186.986V186.935C266.626 186.827 266.293 186.592 266.046 186.232C265.799 185.868 265.677 185.455 265.68 184.992C265.677 184.548 265.789 184.152 266.016 183.803C266.243 183.453 266.556 183.178 266.954 182.976C267.354 182.774 267.81 182.673 268.322 182.673C268.827 182.673 269.279 182.774 269.677 182.976C270.074 183.178 270.387 183.453 270.614 183.803C270.844 184.152 270.961 184.548 270.964 184.992C270.961 185.455 270.834 185.868 270.584 186.232C270.337 186.592 270.009 186.827 269.6 186.935V186.986C269.915 187.043 270.199 187.178 270.452 187.391C270.705 187.601 270.907 187.864 271.057 188.179C271.208 188.492 271.285 188.833 271.288 189.202C271.285 189.673 271.157 190.094 270.904 190.463C270.654 190.83 270.306 191.118 269.86 191.328C269.417 191.536 268.904 191.639 268.322 191.639ZM268.322 190.702C268.716 190.702 269.057 190.638 269.344 190.51C269.631 190.382 269.853 190.202 270.009 189.969C270.165 189.736 270.245 189.463 270.248 189.151C270.245 188.821 270.16 188.53 269.992 188.277C269.824 188.024 269.596 187.825 269.306 187.681C269.019 187.536 268.691 187.463 268.322 187.463C267.949 187.463 267.617 187.536 267.324 187.681C267.035 187.825 266.806 188.024 266.638 188.277C266.474 188.53 266.393 188.821 266.395 189.151C266.393 189.463 266.468 189.736 266.621 189.969C266.778 190.202 267.001 190.382 267.29 190.51C267.58 190.638 267.924 190.702 268.322 190.702ZM268.322 186.56C268.634 186.56 268.911 186.497 269.153 186.372C269.397 186.247 269.589 186.073 269.728 185.848C269.867 185.624 269.938 185.361 269.941 185.06C269.938 184.764 269.868 184.507 269.732 184.288C269.596 184.067 269.407 183.896 269.165 183.777C268.924 183.655 268.643 183.594 268.322 183.594C267.995 183.594 267.709 183.655 267.465 183.777C267.221 183.896 267.032 184.067 266.898 184.288C266.765 184.507 266.699 184.764 266.702 185.06C266.699 185.361 266.766 185.624 266.903 185.848C267.042 186.073 267.234 186.247 267.478 186.372C267.722 186.497 268.003 186.56 268.322 186.56Z" fill="black"/>
<path d="M292.24 171V165" stroke="black"/>
<path d="M292.178 182.673C292.536 182.676 292.894 182.744 293.252 182.878C293.609 183.011 293.936 183.233 294.232 183.543C294.527 183.85 294.764 184.269 294.943 184.8C295.122 185.331 295.212 185.997 295.212 186.798C295.212 187.574 295.138 188.263 294.99 188.865C294.845 189.465 294.635 189.97 294.359 190.382C294.087 190.794 293.754 191.107 293.362 191.32C292.973 191.533 292.533 191.639 292.041 191.639C291.553 191.639 291.117 191.543 290.733 191.35C290.352 191.154 290.04 190.882 289.796 190.536C289.554 190.186 289.399 189.781 289.331 189.321H290.371C290.465 189.722 290.651 190.053 290.929 190.314C291.21 190.573 291.581 190.702 292.041 190.702C292.715 190.702 293.246 190.408 293.635 189.82C294.027 189.232 294.223 188.401 294.223 187.327H294.155C293.996 187.565 293.807 187.771 293.588 187.945C293.369 188.118 293.127 188.252 292.859 188.345C292.592 188.439 292.308 188.486 292.007 188.486C291.507 188.486 291.048 188.362 290.631 188.115C290.216 187.865 289.884 187.523 289.634 187.088C289.386 186.651 289.263 186.151 289.263 185.588C289.263 185.054 289.382 184.565 289.621 184.122C289.862 183.676 290.2 183.321 290.635 183.057C291.073 182.793 291.587 182.665 292.178 182.673ZM292.178 183.611C291.82 183.611 291.497 183.7 291.21 183.879C290.926 184.056 290.7 184.294 290.533 184.595C290.368 184.894 290.286 185.225 290.286 185.588C290.286 185.952 290.365 186.283 290.524 186.581C290.686 186.877 290.906 187.112 291.185 187.288C291.466 187.462 291.786 187.548 292.144 187.548C292.413 187.548 292.665 187.496 292.898 187.391C293.131 187.283 293.334 187.136 293.507 186.952C293.683 186.764 293.821 186.553 293.921 186.317C294.02 186.078 294.07 185.83 294.07 185.571C294.07 185.23 293.987 184.911 293.823 184.612C293.661 184.314 293.436 184.073 293.149 183.888C292.865 183.703 292.541 183.611 292.178 183.611Z" fill="black"/>
<path d="M316.16 171V165" stroke="black"/>
<path d="M313.593 182.793V191.52H312.536V183.901H312.485L310.354 185.315V184.242L312.536 182.793H313.593ZM318.949 191.639C318.307 191.639 317.76 191.465 317.308 191.115C316.857 190.763 316.512 190.253 316.273 189.585C316.034 188.915 315.915 188.105 315.915 187.156C315.915 186.213 316.034 185.408 316.273 184.74C316.514 184.07 316.861 183.558 317.313 183.206C317.767 182.851 318.313 182.673 318.949 182.673C319.585 182.673 320.129 182.851 320.581 183.206C321.036 183.558 321.382 184.07 321.621 184.74C321.862 185.408 321.983 186.213 321.983 187.156C321.983 188.105 321.864 188.915 321.625 189.585C321.387 190.253 321.041 190.763 320.59 191.115C320.138 191.465 319.591 191.639 318.949 191.639ZM318.949 190.702C319.585 190.702 320.08 190.395 320.432 189.781C320.784 189.168 320.96 188.293 320.96 187.156C320.96 186.401 320.879 185.757 320.718 185.226C320.558 184.695 320.328 184.29 320.027 184.011C319.729 183.733 319.37 183.594 318.949 183.594C318.318 183.594 317.825 183.905 317.47 184.527C317.115 185.146 316.938 186.023 316.938 187.156C316.938 187.912 317.017 188.554 317.176 189.083C317.335 189.611 317.564 190.013 317.862 190.288C318.164 190.564 318.526 190.702 318.949 190.702Z" fill="black"/>
<path d="M340.08 171V165" stroke="black"/>
<path d="M338.473 182.793V191.52H337.417V183.901H337.365L335.235 185.315V184.242L337.417 182.793H338.473ZM344.052 182.793V191.52H342.995V183.901H342.944L340.813 185.315V184.242L342.995 182.793H344.052Z" fill="black"/>
<path d="M364 171V165" stroke="black"/>
<path d="M361.55 182.793V191.52H360.493V183.901H360.442L358.311 185.315V184.242L360.493 182.793H361.55ZM364.06 191.52V190.753L366.94 187.6C367.278 187.23 367.557 186.909 367.776 186.636C367.994 186.361 368.156 186.102 368.261 185.861C368.369 185.617 368.423 185.361 368.423 185.094C368.423 184.787 368.349 184.521 368.202 184.297C368.057 184.073 367.858 183.899 367.605 183.777C367.352 183.655 367.068 183.594 366.753 183.594C366.418 183.594 366.125 183.663 365.875 183.803C365.628 183.939 365.436 184.131 365.3 184.378C365.166 184.625 365.099 184.915 365.099 185.247H364.094C364.094 184.736 364.212 184.287 364.447 183.901C364.683 183.514 365.004 183.213 365.411 182.997C365.82 182.781 366.278 182.673 366.787 182.673C367.298 182.673 367.751 182.781 368.146 182.997C368.541 183.213 368.851 183.504 369.075 183.871C369.3 184.237 369.412 184.645 369.412 185.094C369.412 185.415 369.354 185.729 369.237 186.036C369.124 186.34 368.925 186.679 368.641 187.054C368.359 187.426 367.969 187.881 367.469 188.418L365.509 190.514V190.583H369.565V191.52H364.06Z" fill="black"/>
<path d="M387.92 171V165" stroke="black"/>
<path d="M385.282 182.793V191.52H384.225V183.901H384.174L382.044 185.315V184.242L384.225 182.793H385.282ZM390.741 191.639C390.179 191.639 389.677 191.543 389.237 191.35C388.799 191.156 388.451 190.888 388.193 190.544C387.937 190.198 387.798 189.796 387.775 189.338H388.849C388.872 189.619 388.968 189.862 389.139 190.067C389.309 190.269 389.532 190.425 389.808 190.536C390.083 190.646 390.389 190.702 390.724 190.702C391.099 190.702 391.431 190.636 391.721 190.506C392.011 190.375 392.238 190.193 392.403 189.96C392.568 189.727 392.65 189.458 392.65 189.151C392.65 188.83 392.571 188.547 392.411 188.303C392.252 188.056 392.019 187.862 391.713 187.723C391.406 187.584 391.031 187.514 390.588 187.514H389.889V186.577H390.588C390.934 186.577 391.238 186.514 391.5 186.389C391.764 186.264 391.97 186.088 392.117 185.861C392.268 185.634 392.343 185.367 392.343 185.06C392.343 184.764 392.278 184.507 392.147 184.288C392.017 184.07 391.832 183.899 391.593 183.777C391.358 183.655 391.079 183.594 390.758 183.594C390.457 183.594 390.173 183.649 389.906 183.76C389.642 183.868 389.426 184.026 389.258 184.233C389.09 184.438 389 184.685 388.985 184.975H387.963C387.98 184.517 388.117 184.117 388.376 183.773C388.635 183.426 388.973 183.156 389.39 182.963C389.811 182.77 390.272 182.673 390.775 182.673C391.315 182.673 391.778 182.783 392.164 183.002C392.551 183.217 392.848 183.503 393.055 183.858C393.262 184.213 393.366 184.597 393.366 185.009C393.366 185.5 393.237 185.919 392.978 186.266C392.723 186.612 392.375 186.852 391.934 186.986V187.054C392.485 187.145 392.916 187.379 393.225 187.757C393.535 188.132 393.69 188.597 393.69 189.151C393.69 189.625 393.561 190.051 393.302 190.429C393.046 190.804 392.697 191.1 392.254 191.315C391.811 191.531 391.306 191.639 390.741 191.639Z" fill="black"/>
<path d="M411.84 171V165" stroke="black"/>
<path d="M409.173 182.793V191.52H408.116V183.901H408.065L405.934 185.315V184.242L408.116 182.793H409.173ZM411.478 189.73V188.861L415.314 182.793H415.944V184.139H415.518L412.62 188.725V188.793H417.785V189.73H411.478ZM415.586 191.52V189.466V189.061V182.793H416.592V191.52H415.586Z" fill="black"/>
<path d="M435.76 171V165" stroke="black"/>
<path d="M433.292 182.793V191.52H432.235V183.901H432.184L430.054 185.315V184.242L432.235 182.793H433.292ZM438.529 191.639C438.029 191.639 437.579 191.54 437.179 191.341C436.778 191.142 436.457 190.869 436.215 190.523C435.974 190.176 435.842 189.781 435.819 189.338H436.842C436.882 189.733 437.061 190.06 437.379 190.318C437.7 190.574 438.083 190.702 438.529 190.702C438.887 190.702 439.206 190.618 439.484 190.45C439.765 190.283 439.985 190.053 440.144 189.76C440.306 189.465 440.387 189.131 440.387 188.759C440.387 188.378 440.304 188.038 440.136 187.74C439.971 187.439 439.744 187.202 439.454 187.029C439.164 186.855 438.833 186.767 438.461 186.764C438.194 186.761 437.92 186.803 437.639 186.888C437.357 186.97 437.126 187.077 436.944 187.208L435.955 187.088L436.484 182.793H441.018V183.73H437.37L437.063 186.304H437.115C437.294 186.162 437.518 186.044 437.788 185.95C438.058 185.857 438.339 185.81 438.632 185.81C439.166 185.81 439.642 185.938 440.059 186.193C440.48 186.446 440.809 186.793 441.048 187.233C441.289 187.673 441.41 188.176 441.41 188.742C441.41 189.298 441.285 189.796 441.035 190.233C440.788 190.668 440.447 191.011 440.012 191.264C439.578 191.514 439.083 191.639 438.529 191.639Z" fill="black"/>
<path d="M459.68 171V165" stroke="black"/>
<path d="M457.118 182.793V191.52H456.062V183.901H456.01L453.88 185.315V184.242L456.062 182.793H457.118ZM462.526 191.639C462.168 191.634 461.81 191.565 461.452 191.435C461.094 191.304 460.768 191.084 460.472 190.774C460.177 190.462 459.939 190.04 459.76 189.509C459.581 188.975 459.492 188.304 459.492 187.497C459.492 186.725 459.564 186.04 459.709 185.443C459.854 184.844 460.064 184.34 460.34 183.931C460.616 183.519 460.948 183.206 461.337 182.993C461.729 182.78 462.171 182.673 462.662 182.673C463.151 182.673 463.586 182.771 463.966 182.967C464.35 183.161 464.662 183.431 464.904 183.777C465.145 184.124 465.302 184.523 465.373 184.975H464.333C464.236 184.583 464.049 184.257 463.77 183.999C463.492 183.74 463.123 183.611 462.662 183.611C461.986 183.611 461.454 183.905 461.064 184.493C460.678 185.081 460.483 185.906 460.481 186.969H460.549C460.708 186.727 460.897 186.521 461.116 186.351C461.337 186.178 461.581 186.044 461.848 185.95C462.116 185.857 462.398 185.81 462.697 185.81C463.197 185.81 463.654 185.935 464.069 186.185C464.483 186.432 464.816 186.774 465.066 187.212C465.316 187.646 465.441 188.145 465.441 188.708C465.441 189.247 465.32 189.742 465.079 190.19C464.837 190.636 464.498 190.992 464.06 191.256C463.625 191.517 463.114 191.645 462.526 191.639ZM462.526 190.702C462.884 190.702 463.205 190.612 463.489 190.433C463.776 190.254 464.002 190.014 464.167 189.713C464.334 189.412 464.418 189.077 464.418 188.708C464.418 188.347 464.337 188.019 464.175 187.723C464.016 187.425 463.796 187.188 463.515 187.011C463.236 186.835 462.918 186.747 462.56 186.747C462.29 186.747 462.039 186.801 461.806 186.909C461.573 187.014 461.368 187.159 461.192 187.344C461.019 187.529 460.883 187.74 460.783 187.979C460.684 188.215 460.634 188.463 460.634 188.725C460.634 189.071 460.715 189.395 460.877 189.696C461.042 189.997 461.266 190.24 461.55 190.425C461.837 190.609 462.162 190.702 462.526 190.702Z" fill="black"/>
<path d="M483.6 171V165" stroke="black"/>
<path d="M481.355 182.793V191.52H480.298V183.901H480.247L478.116 185.315V184.242L480.298 182.793H481.355ZM484.137 191.52L488.041 183.798V183.73H483.541V182.793H489.132V183.781L485.245 191.52H484.137Z" fill="black"/>
<path d="M507.52 171V165" stroke="black"/>
<path d="M505.005 182.793V191.52H503.948V183.901H503.897L501.767 185.315V184.242L503.948 182.793H505.005ZM510.311 191.639C509.725 191.639 509.208 191.536 508.76 191.328C508.313 191.118 507.965 190.83 507.715 190.463C507.465 190.094 507.342 189.673 507.345 189.202C507.342 188.833 507.414 188.492 507.562 188.179C507.71 187.864 507.912 187.601 508.167 187.391C508.426 187.178 508.714 187.043 509.032 186.986V186.935C508.615 186.827 508.282 186.592 508.035 186.232C507.788 185.868 507.666 185.455 507.669 184.992C507.666 184.548 507.778 184.152 508.005 183.803C508.233 183.453 508.545 183.178 508.943 182.976C509.343 182.774 509.799 182.673 510.311 182.673C510.816 182.673 511.268 182.774 511.666 182.976C512.063 183.178 512.376 183.453 512.603 183.803C512.833 184.152 512.95 184.548 512.953 184.992C512.95 185.455 512.823 185.868 512.573 186.232C512.326 186.592 511.998 186.827 511.589 186.935V186.986C511.904 187.043 512.188 187.178 512.441 187.391C512.694 187.601 512.896 187.864 513.046 188.179C513.197 188.492 513.274 188.833 513.277 189.202C513.274 189.673 513.146 190.094 512.893 190.463C512.643 190.83 512.295 191.118 511.849 191.328C511.406 191.536 510.893 191.639 510.311 191.639ZM510.311 190.702C510.706 190.702 511.046 190.638 511.333 190.51C511.62 190.382 511.842 190.202 511.998 189.969C512.154 189.736 512.234 189.463 512.237 189.151C512.234 188.821 512.149 188.53 511.981 188.277C511.813 188.024 511.585 187.825 511.295 187.681C511.008 187.536 510.68 187.463 510.311 187.463C509.938 187.463 509.606 187.536 509.313 187.681C509.024 187.825 508.795 188.024 508.627 188.277C508.463 188.53 508.382 188.821 508.385 189.151C508.382 189.463 508.457 189.736 508.61 189.969C508.767 190.202 508.99 190.382 509.279 190.51C509.569 190.638 509.913 190.702 510.311 190.702ZM510.311 186.56C510.623 186.56 510.9 186.497 511.142 186.372C511.386 186.247 511.578 186.073 511.717 185.848C511.856 185.624 511.927 185.361 511.93 185.06C511.927 184.764 511.858 184.507 511.721 184.288C511.585 184.067 511.396 183.896 511.154 183.777C510.913 183.655 510.632 183.594 510.311 183.594C509.984 183.594 509.698 183.655 509.454 183.777C509.21 183.896 509.021 184.067 508.887 184.288C508.754 184.507 508.688 184.764 508.691 185.06C508.688 185.361 508.755 185.624 508.892 185.848C509.031 186.073 509.223 186.247 509.467 186.372C509.711 186.497 509.992 186.56 510.311 186.56Z" fill="black"/>
<path d="M531.44 171V165" stroke="black"/>
<path d="M528.878 182.793V191.52H527.822V183.901H527.77L525.64 185.315V184.242L527.822 182.793H528.878ZM534.167 182.673C534.525 182.676 534.883 182.744 535.241 182.878C535.599 183.011 535.925 183.233 536.221 183.543C536.516 183.85 536.753 184.269 536.932 184.8C537.111 185.331 537.201 185.997 537.201 186.798C537.201 187.574 537.127 188.263 536.979 188.865C536.834 189.465 536.624 189.97 536.349 190.382C536.076 190.794 535.743 191.107 535.351 191.32C534.962 191.533 534.522 191.639 534.03 191.639C533.542 191.639 533.106 191.543 532.722 191.35C532.341 191.154 532.029 190.882 531.785 190.536C531.543 190.186 531.388 189.781 531.32 189.321H532.36C532.454 189.722 532.64 190.053 532.918 190.314C533.199 190.573 533.57 190.702 534.03 190.702C534.704 190.702 535.235 190.408 535.624 189.82C536.016 189.232 536.212 188.401 536.212 187.327H536.144C535.985 187.565 535.796 187.771 535.577 187.945C535.359 188.118 535.116 188.252 534.849 188.345C534.582 188.439 534.297 188.486 533.996 188.486C533.496 188.486 533.037 188.362 532.62 188.115C532.205 187.865 531.873 187.523 531.623 187.088C531.376 186.651 531.252 186.151 531.252 185.588C531.252 185.054 531.371 184.565 531.61 184.122C531.851 183.676 532.189 183.321 532.624 183.057C533.062 182.793 533.576 182.665 534.167 182.673ZM534.167 183.611C533.809 183.611 533.486 183.7 533.199 183.879C532.915 184.056 532.689 184.294 532.522 184.595C532.357 184.894 532.275 185.225 532.275 185.588C532.275 185.952 532.354 186.283 532.513 186.581C532.675 186.877 532.895 187.112 533.174 187.288C533.455 187.462 533.775 187.548 534.133 187.548C534.403 187.548 534.654 187.496 534.887 187.391C535.12 187.283 535.323 187.136 535.496 186.952C535.672 186.764 535.81 186.553 535.91 186.317C536.009 186.078 536.059 185.83 536.059 185.571C536.059 185.23 535.976 184.911 535.812 184.612C535.65 184.314 535.425 184.073 535.138 183.888C534.854 183.703 534.53 183.611 534.167 183.611Z" fill="black"/>
<path d="M555.36 171V165" stroke="black"/>
<path d="M548.881 191.52V190.753L551.761 187.6C552.099 187.23 552.378 186.909 552.596 186.636C552.815 186.361 552.977 186.102 553.082 185.861C553.19 185.617 553.244 185.361 553.244 185.094C553.244 184.787 553.17 184.521 553.023 184.297C552.878 184.073 552.679 183.899 552.426 183.777C552.173 183.655 551.889 183.594 551.574 183.594C551.239 183.594 550.946 183.663 550.696 183.803C550.449 183.939 550.257 184.131 550.121 184.378C549.987 184.625 549.92 184.915 549.92 185.247H548.915C548.915 184.736 549.033 184.287 549.268 183.901C549.504 183.514 549.825 183.213 550.231 182.997C550.641 182.781 551.099 182.673 551.608 182.673C552.119 182.673 552.572 182.781 552.967 182.997C553.362 183.213 553.672 183.504 553.896 183.871C554.121 184.237 554.233 184.645 554.233 185.094C554.233 185.415 554.175 185.729 554.058 186.036C553.945 186.34 553.746 186.679 553.462 187.054C553.18 187.426 552.79 187.881 552.29 188.418L550.329 190.514V190.583H554.386V191.52H548.881ZM558.993 191.639C558.351 191.639 557.804 191.465 557.352 191.115C556.9 190.763 556.555 190.253 556.317 189.585C556.078 188.915 555.959 188.105 555.959 187.156C555.959 186.213 556.078 185.408 556.317 184.74C556.558 184.07 556.905 183.558 557.356 183.206C557.811 182.851 558.356 182.673 558.993 182.673C559.629 182.673 560.173 182.851 560.625 183.206C561.079 183.558 561.426 184.07 561.665 184.74C561.906 185.408 562.027 186.213 562.027 187.156C562.027 188.105 561.908 188.915 561.669 189.585C561.43 190.253 561.085 190.763 560.633 191.115C560.182 191.465 559.635 191.639 558.993 191.639ZM558.993 190.702C559.629 190.702 560.123 190.395 560.476 189.781C560.828 189.168 561.004 188.293 561.004 187.156C561.004 186.401 560.923 185.757 560.761 185.226C560.602 184.695 560.372 184.29 560.071 184.011C559.773 183.733 559.413 183.594 558.993 183.594C558.362 183.594 557.869 183.905 557.514 184.527C557.159 185.146 556.981 186.023 556.981 187.156C556.981 187.912 557.061 188.554 557.22 189.083C557.379 189.611 557.608 190.013 557.906 190.288C558.207 190.564 558.57 190.702 558.993 190.702Z" fill="black"/>
<path d="M579.28 171V165" stroke="black"/>
<path d="M573.762 191.52V190.753L576.642 187.6C576.98 187.23 577.259 186.909 577.477 186.636C577.696 186.361 577.858 186.102 577.963 185.861C578.071 185.617 578.125 185.361 578.125 185.094C578.125 184.787 578.051 184.521 577.904 184.297C577.759 184.073 577.56 183.899 577.307 183.777C577.054 183.655 576.77 183.594 576.455 183.594C576.12 183.594 575.827 183.663 575.577 183.803C575.33 183.939 575.138 184.131 575.002 184.378C574.868 184.625 574.801 184.915 574.801 185.247H573.796C573.796 184.736 573.914 184.287 574.149 183.901C574.385 183.514 574.706 183.213 575.112 182.997C575.522 182.781 575.98 182.673 576.489 182.673C577 182.673 577.453 182.781 577.848 182.997C578.243 183.213 578.553 183.504 578.777 183.871C579.002 184.237 579.114 184.645 579.114 185.094C579.114 185.415 579.056 185.729 578.939 186.036C578.825 186.34 578.627 186.679 578.343 187.054C578.061 187.426 577.671 187.881 577.171 188.418L575.21 190.514V190.583H579.267V191.52H573.762ZM584.095 182.793V191.52H583.039V183.901H582.987L580.857 185.315V184.242L583.039 182.793H584.095Z" fill="black"/>
<path d="M603.2 171V165" stroke="black"/>
<path d="M596.838 191.52V190.753L599.718 187.6C600.057 187.23 600.335 186.909 600.554 186.636C600.772 186.361 600.934 186.102 601.04 185.861C601.147 185.617 601.201 185.361 601.201 185.094C601.201 184.787 601.128 184.521 600.98 184.297C600.835 184.073 600.636 183.899 600.383 183.777C600.13 183.655 599.846 183.594 599.531 183.594C599.196 183.594 598.903 183.663 598.653 183.803C598.406 183.939 598.214 184.131 598.078 184.378C597.944 184.625 597.878 184.915 597.878 185.247H596.872C596.872 184.736 596.99 184.287 597.226 183.901C597.461 183.514 597.782 183.213 598.189 182.997C598.598 182.781 599.057 182.673 599.565 182.673C600.076 182.673 600.53 182.781 600.924 182.997C601.319 183.213 601.629 183.504 601.853 183.871C602.078 184.237 602.19 184.645 602.19 185.094C602.19 185.415 602.132 185.729 602.015 186.036C601.902 186.34 601.703 186.679 601.419 187.054C601.138 187.426 600.747 187.881 600.247 188.418L598.287 190.514V190.583H602.343V191.52H596.838ZM604.103 191.52V190.753L606.984 187.6C607.322 187.23 607.601 186.909 607.819 186.636C608.038 186.361 608.2 186.102 608.305 185.861C608.413 185.617 608.467 185.361 608.467 185.094C608.467 184.787 608.393 184.521 608.245 184.297C608.101 184.073 607.902 183.899 607.649 183.777C607.396 183.655 607.112 183.594 606.797 183.594C606.461 183.594 606.169 183.663 605.919 183.803C605.672 183.939 605.48 184.131 605.343 184.378C605.21 184.625 605.143 184.915 605.143 185.247H604.138C604.138 184.736 604.255 184.287 604.491 183.901C604.727 183.514 605.048 183.213 605.454 182.997C605.863 182.781 606.322 182.673 606.831 182.673C607.342 182.673 607.795 182.781 608.19 182.997C608.585 183.213 608.895 183.504 609.119 183.871C609.343 184.237 609.456 184.645 609.456 185.094C609.456 185.415 609.397 185.729 609.281 186.036C609.167 186.34 608.968 186.679 608.684 187.054C608.403 187.426 608.013 187.881 607.513 188.418L605.552 190.514V190.583H609.609V191.52H604.103Z" fill="black"/>
<path d="M627.12 171V165" stroke="black"/>
<path d="M620.57 191.52V190.753L623.451 187.6C623.789 187.23 624.067 186.909 624.286 186.636C624.505 186.361 624.667 186.102 624.772 185.861C624.88 185.617 624.934 185.361 624.934 185.094C624.934 184.787 624.86 184.521 624.712 184.297C624.567 184.073 624.369 183.899 624.116 183.777C623.863 183.655 623.579 183.594 623.263 183.594C622.928 183.594 622.636 183.663 622.386 183.803C622.138 183.939 621.947 184.131 621.81 184.378C621.677 184.625 621.61 184.915 621.61 185.247H620.604C620.604 184.736 620.722 184.287 620.958 183.901C621.194 183.514 621.515 183.213 621.921 182.997C622.33 182.781 622.789 182.673 623.298 182.673C623.809 182.673 624.262 182.781 624.657 182.997C625.052 183.213 625.361 183.504 625.586 183.871C625.81 184.237 625.923 184.645 625.923 185.094C625.923 185.415 625.864 185.729 625.748 186.036C625.634 186.34 625.435 186.679 625.151 187.054C624.87 187.426 624.479 187.881 623.979 188.418L622.019 190.514V190.583H626.076V191.52H620.57ZM630.785 191.639C630.222 191.639 629.721 191.543 629.281 191.35C628.843 191.156 628.495 190.888 628.236 190.544C627.981 190.198 627.842 189.796 627.819 189.338H628.893C628.915 189.619 629.012 189.862 629.182 190.067C629.353 190.269 629.576 190.425 629.852 190.536C630.127 190.646 630.432 190.702 630.768 190.702C631.143 190.702 631.475 190.636 631.765 190.506C632.055 190.375 632.282 190.193 632.447 189.96C632.611 189.727 632.694 189.458 632.694 189.151C632.694 188.83 632.614 188.547 632.455 188.303C632.296 188.056 632.063 187.862 631.756 187.723C631.45 187.584 631.075 187.514 630.631 187.514H629.932V186.577H630.631C630.978 186.577 631.282 186.514 631.543 186.389C631.807 186.264 632.013 186.088 632.161 185.861C632.312 185.634 632.387 185.367 632.387 185.06C632.387 184.764 632.322 184.507 632.191 184.288C632.06 184.07 631.876 183.899 631.637 183.777C631.401 183.655 631.123 183.594 630.802 183.594C630.501 183.594 630.217 183.649 629.95 183.76C629.685 183.868 629.469 184.026 629.302 184.233C629.134 184.438 629.043 184.685 629.029 184.975H628.006C628.023 184.517 628.161 184.117 628.42 183.773C628.678 183.426 629.016 183.156 629.434 182.963C629.854 182.77 630.316 182.673 630.819 182.673C631.359 182.673 631.822 182.783 632.208 183.002C632.594 183.217 632.891 183.503 633.099 183.858C633.306 184.213 633.41 184.597 633.41 185.009C633.41 185.5 633.281 185.919 633.022 186.266C632.766 186.612 632.418 186.852 631.978 186.986V187.054C632.529 187.145 632.959 187.379 633.269 187.757C633.579 188.132 633.734 188.597 633.734 189.151C633.734 189.625 633.604 190.051 633.346 190.429C633.09 190.804 632.741 191.1 632.298 191.315C631.854 191.531 631.35 191.639 630.785 191.639Z" fill="black"/>
<path d="M651.04 171V165" stroke="black"/>
<path d="M644.555 191.52V190.753L647.435 187.6C647.773 187.23 648.052 186.909 648.271 186.636C648.489 186.361 648.651 186.102 648.756 185.861C648.864 185.617 648.918 185.361 648.918 185.094C648.918 184.787 648.844 184.521 648.697 184.297C648.552 184.073 648.353 183.899 648.1 183.777C647.847 183.655 647.563 183.594 647.248 183.594C646.913 183.594 646.62 183.663 646.37 183.803C646.123 183.939 645.931 184.131 645.795 184.378C645.661 184.625 645.594 184.915 645.594 185.247H644.589C644.589 184.736 644.707 184.287 644.942 183.901C645.178 183.514 645.499 183.213 645.906 182.997C646.315 182.781 646.773 182.673 647.282 182.673C647.793 182.673 648.246 182.781 648.641 182.997C649.036 183.213 649.346 183.504 649.57 183.871C649.795 184.237 649.907 184.645 649.907 185.094C649.907 185.415 649.849 185.729 649.732 186.036C649.619 186.34 649.42 186.679 649.136 187.054C648.854 187.426 648.464 187.881 647.964 188.418L646.004 190.514V190.583H650.06V191.52H644.555ZM651.428 189.73V188.861L655.264 182.793H655.894V184.139H655.468L652.57 188.725V188.793H657.735V189.73H651.428ZM655.536 191.52V189.466V189.061V182.793H656.542V191.52H655.536Z" fill="black"/>
<path d="M65 5V165" stroke="black"/>
<path d="M59 165H65" stroke="black"/>
<path d="M50.25 169.379C49.608 169.379 49.0611 169.205 48.6094 168.855C48.1577 168.503 47.8125 167.993 47.5739 167.325C47.3352 166.655 47.2159 165.845 47.2159 164.896C47.2159 163.953 47.3352 163.148 47.5739 162.48C47.8153 161.81 48.1619 161.298 48.6136 160.946C49.0682 160.591 49.6136 160.413 50.25 160.413C50.8864 160.413 51.4304 160.591 51.8821 160.946C52.3366 161.298 52.6832 161.81 52.9219 162.48C53.1634 163.148 53.2841 163.953 53.2841 164.896C53.2841 165.845 53.1648 166.655 52.9261 167.325C52.6875 167.993 52.3423 168.503 51.8906 168.855C51.4389 169.205 50.892 169.379 50.25 169.379ZM50.25 168.442C50.8864 168.442 51.3807 168.135 51.733 167.521C52.0852 166.908 52.2614 166.033 52.2614 164.896C52.2614 164.141 52.1804 163.497 52.0185 162.966C51.8594 162.435 51.6293 162.03 51.3281 161.751C51.0298 161.473 50.6705 161.334 50.25 161.334C49.6193 161.334 49.1264 161.645 48.7713 162.267C48.4162 162.886 48.2386 163.763 48.2386 164.896C48.2386 165.652 48.3182 166.294 48.4773 166.822C48.6364 167.351 48.8651 167.753 49.1634 168.028C49.4645 168.304 49.8267 168.442 50.25 168.442Z" fill="black"/>
<path d="M59 125H65" stroke="black"/>
<path d="M32.837 129.26V128.493L35.7177 125.34C36.0558 124.97 36.3342 124.649 36.5529 124.376C36.7717 124.101 36.9336 123.842 37.0387 123.601C37.1467 123.357 37.2006 123.101 37.2006 122.834C37.2006 122.527 37.1268 122.261 36.979 122.037C36.8342 121.813 36.6353 121.639 36.3825 121.517C36.1296 121.395 35.8455 121.334 35.5302 121.334C35.195 121.334 34.9023 121.403 34.6523 121.543C34.4052 121.679 34.2134 121.871 34.0771 122.118C33.9435 122.365 33.8768 122.655 33.8768 122.987H32.8711C32.8711 122.476 32.989 122.027 33.2248 121.641C33.4606 121.254 33.7816 120.953 34.1879 120.737C34.5969 120.521 35.0558 120.413 35.5643 120.413C36.0756 120.413 36.5288 120.521 36.9237 120.737C37.3185 120.953 37.6282 121.244 37.8526 121.611C38.0771 121.977 38.1893 122.385 38.1893 122.834C38.1893 123.155 38.131 123.469 38.0146 123.776C37.9009 124.08 37.7021 124.419 37.418 124.794C37.1367 125.166 36.7461 125.621 36.2461 126.158L34.2859 128.254V128.322H38.3427V129.26H32.837ZM42.8299 129.379C42.3299 129.379 41.8796 129.28 41.479 129.081C41.0785 128.882 40.7575 128.609 40.516 128.263C40.2745 127.916 40.1424 127.521 40.1197 127.078H41.1424C41.1822 127.473 41.3612 127.8 41.6793 128.058C42.0004 128.314 42.3839 128.442 42.8299 128.442C43.1879 128.442 43.506 128.358 43.7844 128.19C44.0657 128.023 44.2859 127.793 44.445 127.5C44.6069 127.205 44.6879 126.871 44.6879 126.499C44.6879 126.118 44.604 125.778 44.4364 125.48C44.2717 125.179 44.0444 124.942 43.7546 124.769C43.4648 124.595 43.1339 124.507 42.7617 124.504C42.4947 124.501 42.2205 124.543 41.9393 124.628C41.658 124.71 41.4265 124.817 41.2447 124.947L40.256 124.828L40.7844 120.533H45.3185V121.47H41.6708L41.364 124.044H41.4151C41.5941 123.902 41.8185 123.784 42.0884 123.69C42.3583 123.597 42.6396 123.55 42.9322 123.55C43.4663 123.55 43.9421 123.678 44.3597 123.933C44.7802 124.186 45.1097 124.533 45.3484 124.973C45.5898 125.413 45.7106 125.916 45.7106 126.482C45.7106 127.038 45.5856 127.536 45.3356 127.973C45.0884 128.408 44.7475 128.751 44.3129 129.004C43.8782 129.254 43.3839 129.379 42.8299 129.379ZM50.25 129.379C49.608 129.379 49.0611 129.205 48.6094 128.855C48.1577 128.503 47.8125 127.993 47.5739 127.325C47.3352 126.655 47.2159 125.845 47.2159 124.896C47.2159 123.953 47.3352 123.148 47.5739 122.48C47.8153 121.81 48.1619 121.298 48.6136 120.946C49.0682 120.591 49.6136 120.413 50.25 120.413C50.8864 120.413 51.4304 120.591 51.8821 120.946C52.3366 121.298 52.6832 121.81 52.9219 122.48C53.1634 123.148 53.2841 123.953 53.2841 124.896C53.2841 125.845 53.1648 126.655 52.9261 127.325C52.6875 127.993 52.3423 128.503 51.8906 128.855C51.4389 129.205 50.892 129.379 50.25 129.379ZM50.25 128.442C50.8864 128.442 51.3807 128.135 51.733 127.521C52.0852 126.908 52.2614 126.033 52.2614 124.896C52.2614 124.141 52.1804 123.497 52.0185 122.966C51.8594 122.435 51.6293 122.03 51.3281 121.751C51.0298 121.473 50.6705 121.334 50.25 121.334C49.6193 121.334 49.1264 121.645 48.7713 122.267C48.4162 122.886 48.2386 123.763 48.2386 124.896C48.2386 125.652 48.3182 126.294 48.4773 126.822C48.6364 127.351 48.8651 127.753 49.1634 128.028C49.4645 128.304 49.8267 128.442 50.25 128.442Z" fill="black"/>
<path d="M59 85H65" stroke="black"/>
<path d="M35.3299 89.3793C34.8299 89.3793 34.3796 89.2799 33.979 89.081C33.5785 88.8822 33.2575 88.6094 33.016 88.2628C32.7745 87.9162 32.6424 87.5214 32.6197 87.0782H33.6424C33.6822 87.4731 33.8612 87.7998 34.1793 88.0583C34.5004 88.314 34.8839 88.4418 35.3299 88.4418C35.6879 88.4418 36.006 88.358 36.2844 88.1904C36.5657 88.0228 36.7859 87.7927 36.945 87.5001C37.1069 87.2046 37.1879 86.8708 37.1879 86.4986C37.1879 86.1179 37.104 85.7785 36.9364 85.4802C36.7717 85.179 36.5444 84.9418 36.2546 84.7685C35.9648 84.5952 35.6339 84.5072 35.2617 84.5043C34.9947 84.5015 34.7205 84.5427 34.4393 84.6279C34.158 84.7103 33.9265 84.8168 33.7447 84.9475L32.756 84.8282L33.2844 80.5327H37.8185V81.4702H34.1708L33.864 84.0441H33.9151C34.0941 83.902 34.3185 83.7841 34.5884 83.6904C34.8583 83.5966 35.1396 83.5498 35.4322 83.5498C35.9663 83.5498 36.4421 83.6776 36.8597 83.9333C37.2802 84.1861 37.6097 84.5327 37.8484 84.9731C38.0898 85.4134 38.2106 85.9162 38.2106 86.4816C38.2106 87.0384 38.0856 87.5356 37.8356 87.9731C37.5884 88.4077 37.2475 88.7515 36.8129 89.0043C36.3782 89.2543 35.8839 89.3793 35.3299 89.3793ZM42.75 89.3793C42.108 89.3793 41.5611 89.2046 41.1094 88.8552C40.6577 88.5029 40.3125 87.9929 40.0739 87.3253C39.8352 86.6549 39.7159 85.8452 39.7159 84.8964C39.7159 83.9532 39.8352 83.1478 40.0739 82.4802C40.3153 81.8097 40.6619 81.2983 41.1136 80.9461C41.5682 80.591 42.1136 80.4134 42.75 80.4134C43.3864 80.4134 43.9304 80.591 44.3821 80.9461C44.8366 81.2983 45.1832 81.8097 45.4219 82.4802C45.6634 83.1478 45.7841 83.9532 45.7841 84.8964C45.7841 85.8452 45.6648 86.6549 45.4261 87.3253C45.1875 87.9929 44.8423 88.5029 44.3906 88.8552C43.9389 89.2046 43.392 89.3793 42.75 89.3793ZM42.75 88.4418C43.3864 88.4418 43.8807 88.135 44.233 87.5214C44.5852 86.9077 44.7614 86.0327 44.7614 84.8964C44.7614 84.1407 44.6804 83.4972 44.5185 82.966C44.3594 82.4347 44.1293 82.0299 43.8281 81.7515C43.5298 81.4731 43.1705 81.3339 42.75 81.3339C42.1193 81.3339 41.6264 81.6449 41.2713 82.2671C40.9162 82.8864 40.7386 83.7628 40.7386 84.8964C40.7386 85.652 40.8182 86.2941 40.9773 86.8225C41.1364 87.3509 41.3651 87.7529 41.6634 88.0285C41.9645 88.304 42.3267 88.4418 42.75 88.4418ZM50.25 89.3793C49.608 89.3793 49.0611 89.2046 48.6094 88.8552C48.1577 88.5029 47.8125 87.9929 47.5739 87.3253C47.3352 86.6549 47.2159 85.8452 47.2159 84.8964C47.2159 83.9532 47.3352 83.1478 47.5739 82.4802C47.8153 81.8097 48.1619 81.2983 48.6136 80.9461C49.0682 80.591 49.6136 80.4134 50.25 80.4134C50.8864 80.4134 51.4304 80.591 51.8821 80.9461C52.3366 81.2983 52.6832 81.8097 52.9219 82.4802C53.1634 83.1478 53.2841 83.9532 53.2841 84.8964C53.2841 85.8452 53.1648 86.6549 52.9261 87.3253C52.6875 87.9929 52.3423 88.5029 51.8906 88.8552C51.4389 89.2046 50.892 89.3793 50.25 89.3793ZM50.25 88.4418C50.8864 88.4418 51.3807 88.135 51.733 87.5214C52.0852 86.9077 52.2614 86.0327 52.2614 84.8964C52.2614 84.1407 52.1804 83.4972 52.0185 82.966C51.8594 82.4347 51.6293 82.0299 51.3281 81.7515C51.0298 81.4731 50.6705 81.3339 50.25 81.3339C49.6193 81.3339 49.1264 81.6449 48.7713 82.2671C48.4162 82.8864 48.2386 83.7628 48.2386 84.8964C48.2386 85.652 48.3182 86.2941 48.4773 86.8225C48.6364 87.3509 48.8651 87.7529 49.1634 88.0285C49.4645 88.304 49.8267 88.4418 50.25 88.4418Z" fill="black"/>
<path d="M59 45H65" stroke="black"/>
<path d="M33.6371 49.26L37.5405 41.5384V41.4702H33.0405V40.5327H38.6314V41.5214L34.745 49.26H33.6371ZM42.8299 49.3793C42.3299 49.3793 41.8796 49.2799 41.479 49.081C41.0785 48.8822 40.7575 48.6094 40.516 48.2628C40.2745 47.9162 40.1424 47.5214 40.1197 47.0782H41.1424C41.1822 47.4731 41.3612 47.7998 41.6793 48.0583C42.0004 48.314 42.3839 48.4418 42.8299 48.4418C43.1879 48.4418 43.506 48.358 43.7844 48.1904C44.0657 48.0228 44.2859 47.7927 44.445 47.5001C44.6069 47.2046 44.6879 46.8708 44.6879 46.4986C44.6879 46.1179 44.604 45.7785 44.4364 45.4802C44.2717 45.179 44.0444 44.9418 43.7546 44.7685C43.4648 44.5952 43.1339 44.5072 42.7617 44.5043C42.4947 44.5015 42.2205 44.5427 41.9393 44.6279C41.658 44.7103 41.4265 44.8168 41.2447 44.9475L40.256 44.8282L40.7844 40.5327H45.3185V41.4702H41.6708L41.364 44.0441H41.4151C41.5941 43.902 41.8185 43.7841 42.0884 43.6904C42.3583 43.5966 42.6396 43.5498 42.9322 43.5498C43.4663 43.5498 43.9421 43.6776 44.3597 43.9333C44.7802 44.1861 45.1097 44.5327 45.3484 44.9731C45.5898 45.4134 45.7106 45.9162 45.7106 46.4816C45.7106 47.0384 45.5856 47.5356 45.3356 47.9731C45.0884 48.4077 44.7475 48.7515 44.3129 49.0043C43.8782 49.2543 43.3839 49.3793 42.8299 49.3793ZM50.25 49.3793C49.608 49.3793 49.0611 49.2046 48.6094 48.8552C48.1577 48.5029 47.8125 47.9929 47.5739 47.3253C47.3352 46.6549 47.2159 45.8452 47.2159 44.8964C47.2159 43.9532 47.3352 43.1478 47.5739 42.4802C47.8153 41.8097 48.1619 41.2983 48.6136 40.9461C49.0682 40.591 49.6136 40.4134 50.25 40.4134C50.8864 40.4134 51.4304 40.591 51.8821 40.9461C52.3366 41.2983 52.6832 41.8097 52.9219 42.4802C53.1634 43.1478 53.2841 43.9532 53.2841 44.8964C53.2841 45.8452 53.1648 46.6549 52.9261 47.3253C52.6875 47.9929 52.3423 48.5029 51.8906 48.8552C51.4389 49.2046 50.892 49.3793 50.25 49.3793ZM50.25 48.4418C50.8864 48.4418 51.3807 48.135 51.733 47.5214C52.0852 46.9077 52.2614 46.0327 52.2614 44.8964C52.2614 44.1407 52.1804 43.4972 52.0185 42.966C51.8594 42.4347 51.6293 42.0299 51.3281 41.7515C51.0298 41.4731 50.6705 41.3339 50.25 41.3339C49.6193 41.3339 49.1264 41.6449 48.7713 42.2671C48.4162 42.8864 48.2386 43.7628 48.2386 44.8964C48.2386 45.652 48.3182 46.2941 48.4773 46.8225C48.6364 47.3509 48.8651 47.7529 49.1634 48.0285C49.4645 48.304 49.8267 48.4418 50.25 48.4418Z" fill="black"/>
<path d="M59 5H65" stroke="black"/>
<path d="M29.8935 4.72803V13.4553H28.8366V5.83599H28.7855L26.6548 7.25076V6.1769L28.8366 4.72803H29.8935ZM35.25 13.5746C34.608 13.5746 34.0611 13.3999 33.6094 13.0505C33.1577 12.6982 32.8125 12.1883 32.5739 11.5206C32.3352 10.8502 32.2159 10.0405 32.2159 9.09167C32.2159 8.14849 32.3352 7.34309 32.5739 6.67548C32.8153 6.00502 33.1619 5.49366 33.6136 5.14139C34.0682 4.78627 34.6136 4.60872 35.25 4.60872C35.8864 4.60872 36.4304 4.78627 36.8821 5.14139C37.3366 5.49366 37.6832 6.00502 37.9219 6.67548C38.1634 7.34309 38.2841 8.14849 38.2841 9.09167C38.2841 10.0405 38.1648 10.8502 37.9261 11.5206C37.6875 12.1883 37.3423 12.6982 36.8906 13.0505C36.4389 13.3999 35.892 13.5746 35.25 13.5746ZM35.25 12.6371C35.8864 12.6371 36.3807 12.3303 36.733 11.7167C37.0852 11.103 37.2614 10.228 37.2614 9.09167C37.2614 8.33599 37.1804 7.69252 37.0185 7.16127C36.8594 6.63002 36.6293 6.22519 36.3281 5.94678C36.0298 5.66838 35.6705 5.52917 35.25 5.52917C34.6193 5.52917 34.1264 5.84025 33.7713 6.46241C33.4162 7.08173 33.2386 7.95815 33.2386 9.09167C33.2386 9.84735 33.3182 10.4894 33.4773 11.0178C33.6364 11.5462 33.8651 11.9482 34.1634 12.2238C34.4645 12.4993 34.8267 12.6371 35.25 12.6371ZM42.75 13.5746C42.108 13.5746 41.5611 13.3999 41.1094 13.0505C40.6577 12.6982 40.3125 12.1883 40.0739 11.5206C39.8352 10.8502 39.7159 10.0405 39.7159 9.09167C39.7159 8.14849 39.8352 7.34309 40.0739 6.67548C40.3153 6.00502 40.6619 5.49366 41.1136 5.14139C41.5682 4.78627 42.1136 4.60872 42.75 4.60872C43.3864 4.60872 43.9304 4.78627 44.3821 5.14139C44.8366 5.49366 45.1832 6.00502 45.4219 6.67548C45.6634 7.34309 45.7841 8.14849 45.7841 9.09167C45.7841 10.0405 45.6648 10.8502 45.4261 11.5206C45.1875 12.1883 44.8423 12.6982 44.3906 13.0505C43.9389 13.3999 43.392 13.5746 42.75 13.5746ZM42.75 12.6371C43.3864 12.6371 43.8807 12.3303 44.233 11.7167C44.5852 11.103 44.7614 10.228 44.7614 9.09167C44.7614 8.33599 44.6804 7.69252 44.5185 7.16127C44.3594 6.63002 44.1293 6.22519 43.8281 5.94678C43.5298 5.66838 43.1705 5.52917 42.75 5.52917C42.1193 5.52917 41.6264 5.84025 41.2713 6.46241C40.9162 7.08173 40.7386 7.95815 40.7386 9.09167C40.7386 9.84735 40.8182 10.4894 40.9773 11.0178C41.1364 11.5462 41.3651 11.9482 41.6634 12.2238C41.9645 12.4993 42.3267 12.6371 42.75 12.6371ZM50.25 13.5746C49.608 13.5746 49.0611 13.3999 48.6094 13.0505C48.1577 12.6982 47.8125 12.1883 47.5739 11.5206C47.3352 10.8502 47.2159 10.0405 47.2159 9.09167C47.2159 8.14849 47.3352 7.34309 47.5739 6.67548C47.8153 6.00502 48.1619 5.49366 48.6136 5.14139C49.0682 4.78627 49.6136 4.60872 50.25 4.60872C50.8864 4.60872 51.4304 4.78627 51.8821 5.14139C52.3366 5.49366 52.6832 6.00502 52.9219 6.67548C53.1634 7.34309 53.2841 8.14849 53.2841 9.09167C53.2841 10.0405 53.1648 10.8502 52.9261 11.5206C52.6875 12.1883 52.3423 12.6982 51.8906 13.0505C51.4389 13.3999 50.892 13.5746 50.25 13.5746ZM50.25 12.6371C50.8864 12.6371 51.3807 12.3303 51.733 11.7167C52.0852 11.103 52.2614 10.228 52.2614 9.09167C52.2614 8.33599 52.1804 7.69252 52.0185 7.16127C51.8594 6.63002 51.6293 6.22519 51.3281 5.94678C51.0298 5.66838 50.6705 5.52917 50.25 5.52917C49.6193 5.52917 49.1264 5.84025 48.7713 6.46241C48.4162 7.08173 48.2386 7.95815 48.2386 9.09167C48.2386 9.84735 48.3182 10.4894 48.4773 11.0178C48.6364 11.5462 48.8651 11.9482 49.1634 12.2238C49.4645 12.4993 49.8267 12.6371 50.25 12.6371Z" fill="black"/>
<path d="M65 165H663" stroke="#CCCCCC"/>
<path d="M65 125H663" stroke="#CCCCCC"/>
<path d="M65 85H663" stroke="#CCCCCC"/>
<path d="M65 45H663" stroke="#CCCCCC"/>
<path d="M65 5H663" stroke="#CCCCCC"/>
<path d="M76.96 5V165" stroke="#CCCCCC"/>
<path d="M100.88 5V165" stroke="#CCCCCC"/>
<path d="M124.8 5V165" stroke="#CCCCCC"/>
<path d="M148.72 5V165" stroke="#CCCCCC"/>
<path d="M172.64 5V165" stroke="#CCCCCC"/>
<path d="M196.56 5V165" stroke="#CCCCCC"/>
<path d="M220.48 5V165" stroke="#CCCCCC"/>
<path d="M244.4 5V165" stroke="#CCCCCC"/>
<path d="M268.32 5V165" stroke="#CCCCCC"/>
<path d="M292.24 5V165" stroke="#CCCCCC"/>
<path d="M316.16 5V165" stroke="#CCCCCC"/>
<path d="M340.08 5V165" stroke="#CCCCCC"/>
<path d="M364 5V165" stroke="#CCCCCC"/>
<path d="M387.92 5V165" stroke="#CCCCCC"/>
<path d="M411.84 5V165" stroke="#CCCCCC"/>
<path d="M435.76 5V165" stroke="#CCCCCC"/>
<path d="M459.68 5V165" stroke="#CCCCCC"/>
<path d="M483.6 5V165" stroke="#CCCCCC"/>
<path d="M507.52 5V165" stroke="#CCCCCC"/>
<path d="M531.44 5V165" stroke="#CCCCCC"/>
<path d="M555.36 5V165" stroke="#CCCCCC"/>
<path d="M579.28 5V165" stroke="#CCCCCC"/>
<path d="M603.2 5V165" stroke="#CCCCCC"/>
<path d="M627.12 5V165" stroke="#CCCCCC"/>
<path d="M651.04 5V165" stroke="#CCCCCC"/>
<path d="M65 5V165" stroke="#CCCCCC"/>
<path d="M663 5V165" stroke="#CCCCCC"/>
<path d="M67.392 157.64H86.392V165H67.392V157.64Z" fill="#23465B"/>
<path d="M91.312 53.8H110.312V165H91.312V53.8Z" fill="#23465B"/>
<path d="M115.232 36.84H134.232V165H115.232V36.84Z" fill="#23465B"/>
<path d="M139.152 78.6H158.152V165H139.152V78.6Z" fill="#23465B"/>
<path d="M163.072 82.92H182.072V165H163.072V82.92Z" fill="#23465B"/>
<path d="M186.992 53.48H205.992V165H186.992V53.48Z" fill="#23465B"/>
<path d="M210.912 7.08H229.912V165H210.912V7.08Z" fill="#23465B"/>
<path d="M234.832 158.28H253.832V165H234.832V158.28Z" fill="#23465B"/>
<path d="M258.752 104.52H277.752V165H258.752V104.52Z" fill="#23465B"/>
<path d="M282.672 143.88H301.672V165H282.672V143.88Z" fill="#23465B"/>
<path d="M306.592 114.76H325.592V165H306.592V114.76Z" fill="#23465B"/>
<path d="M330.512 81.32H349.512V165H330.512V81.32Z" fill="#23465B"/>
<path d="M354.432 112.36H373.432V165H354.432V112.36Z" fill="#23465B"/>
<path d="M378.352 127.88H397.352V165H378.352V127.88Z" fill="#23465B"/>
<path d="M402.272 84.52H421.272V165H402.272V84.52Z" fill="#23465B"/>
<path d="M426.192 24.2H445.192V165H426.192V24.2Z" fill="#23465B"/>
<path d="M450.112 23.88H469.112V165H450.112V23.88Z" fill="#23465B"/>
<path d="M474.032 119.08H493.032V165H474.032V119.08Z" fill="#23465B"/>
<path d="M497.952 76.04H516.952V165H497.952V76.04Z" fill="#23465B"/>
<path d="M521.872 89.16H540.872V165H521.872V89.16Z" fill="#23465B"/>
<path d="M545.792 48.52H564.792V165H545.792V48.52Z" fill="#23465B"/>
<path d="M569.712 140.2H588.712V165H569.712V140.2Z" fill="#23465B"/>
<path d="M593.632 109.96H612.632V165H593.632V109.96Z" fill="#23465B"/>
<path d="M617.552 51.4H636.552V165H617.552V51.4Z" fill="#23465B"/>
<path d="M641.472 10.12H660.472V165H641.472V10.12Z" fill="#23465B"/>
</svg>
