<svg width="668" height="200" viewBox="0 0 668 200" fill="none" xmlns="http://www.w3.org/2000/svg">
<path d="M65 165H663" stroke="black"/>
<path d="M65 171V165" stroke="black"/>
<path d="M65 191.639C64.358 191.639 63.8111 191.465 63.3594 191.115C62.9077 190.763 62.5625 190.253 62.3239 189.585C62.0852 188.915 61.9659 188.105 61.9659 187.156C61.9659 186.213 62.0852 185.408 62.3239 184.74C62.5653 184.07 62.9119 183.558 63.3636 183.206C63.8182 182.851 64.3636 182.673 65 182.673C65.6364 182.673 66.1804 182.851 66.6321 183.206C67.0866 183.558 67.4332 184.07 67.6719 184.74C67.9134 185.408 68.0341 186.213 68.0341 187.156C68.0341 188.105 67.9148 188.915 67.6761 189.585C67.4375 190.253 67.0923 190.763 66.6406 191.115C66.1889 191.465 65.642 191.639 65 191.639ZM65 190.702C65.6364 190.702 66.1307 190.395 66.483 189.781C66.8352 189.168 67.0114 188.293 67.0114 187.156C67.0114 186.401 66.9304 185.757 66.7685 185.226C66.6094 184.695 66.3793 184.29 66.0781 184.011C65.7798 183.733 65.4205 183.594 65 183.594C64.3693 183.594 63.8764 183.905 63.5213 184.527C63.1662 185.146 62.9886 186.023 62.9886 187.156C62.9886 187.912 63.0682 188.554 63.2273 189.083C63.3864 189.611 63.6151 190.013 63.9134 190.288C64.2145 190.564 64.5767 190.702 65 190.702Z" fill="black"/>
<path d="M107.714 171V165" stroke="black"/>
<path d="M108.897 182.793V191.52H107.84V183.901H107.789L105.658 185.315V184.242L107.84 182.793H108.897Z" fill="black"/>
<path d="M150.429 171V165" stroke="black"/>
<path d="M147.699 191.52V190.753L150.58 187.6C150.918 187.23 151.196 186.909 151.415 186.636C151.634 186.361 151.796 186.102 151.901 185.861C152.009 185.617 152.063 185.361 152.063 185.094C152.063 184.787 151.989 184.521 151.841 184.297C151.696 184.073 151.497 183.899 151.245 183.777C150.992 183.655 150.708 183.594 150.392 183.594C150.057 183.594 149.765 183.663 149.515 183.803C149.267 183.939 149.076 184.131 148.939 184.378C148.806 184.625 148.739 184.915 148.739 185.247H147.733C147.733 184.736 147.851 184.287 148.087 183.901C148.323 183.514 148.644 183.213 149.05 182.997C149.459 182.781 149.918 182.673 150.426 182.673C150.938 182.673 151.391 182.781 151.786 182.997C152.181 183.213 152.49 183.504 152.715 183.871C152.939 184.237 153.051 184.645 153.051 185.094C153.051 185.415 152.993 185.729 152.877 186.036C152.763 186.34 152.564 186.679 152.28 187.054C151.999 187.426 151.608 187.881 151.108 188.418L149.148 190.514V190.583H153.205V191.52H147.699Z" fill="black"/>
<path d="M193.143 171V165" stroke="black"/>
<path d="M193.175 191.639C192.612 191.639 192.111 191.543 191.671 191.35C191.233 191.156 190.885 190.888 190.627 190.544C190.371 190.198 190.232 189.796 190.209 189.338H191.283C191.305 189.619 191.402 189.862 191.573 190.067C191.743 190.269 191.966 190.425 192.242 190.536C192.517 190.646 192.823 190.702 193.158 190.702C193.533 190.702 193.865 190.636 194.155 190.506C194.445 190.375 194.672 190.193 194.837 189.96C195.002 189.727 195.084 189.458 195.084 189.151C195.084 188.83 195.004 188.547 194.845 188.303C194.686 188.056 194.453 187.862 194.146 187.723C193.84 187.584 193.465 187.514 193.021 187.514H192.323V186.577H193.021C193.368 186.577 193.672 186.514 193.933 186.389C194.198 186.264 194.404 186.088 194.551 185.861C194.702 185.634 194.777 185.367 194.777 185.06C194.777 184.764 194.712 184.507 194.581 184.288C194.45 184.07 194.266 183.899 194.027 183.777C193.791 183.655 193.513 183.594 193.192 183.594C192.891 183.594 192.607 183.649 192.34 183.76C192.075 183.868 191.859 184.026 191.692 184.233C191.524 184.438 191.433 184.685 191.419 184.975H190.396C190.413 184.517 190.551 184.117 190.81 183.773C191.068 183.426 191.406 183.156 191.824 182.963C192.244 182.77 192.706 182.673 193.209 182.673C193.749 182.673 194.212 182.783 194.598 183.002C194.984 183.217 195.281 183.503 195.489 183.858C195.696 184.213 195.8 184.597 195.8 185.009C195.8 185.5 195.671 185.919 195.412 186.266C195.156 186.612 194.808 186.852 194.368 186.986V187.054C194.919 187.145 195.35 187.379 195.659 187.757C195.969 188.132 196.124 188.597 196.124 189.151C196.124 189.625 195.994 190.051 195.736 190.429C195.48 190.804 195.131 191.1 194.688 191.315C194.244 191.531 193.74 191.639 193.175 191.639Z" fill="black"/>
<path d="M235.857 171V165" stroke="black"/>
<path d="M232.706 189.73V188.861L236.542 182.793H237.172V184.139H236.746L233.848 188.725V188.793H239.013V189.73H232.706ZM236.814 191.52V189.466V189.061V182.793H237.82V191.52H236.814Z" fill="black"/>
<path d="M278.571 171V165" stroke="black"/>
<path d="M278.552 191.639C278.052 191.639 277.601 191.54 277.201 191.341C276.8 191.142 276.479 190.869 276.238 190.523C275.996 190.176 275.864 189.781 275.842 189.338H276.864C276.904 189.733 277.083 190.06 277.401 190.318C277.722 190.574 278.106 190.702 278.552 190.702C278.91 190.702 279.228 190.618 279.506 190.45C279.788 190.283 280.008 190.053 280.167 189.76C280.329 189.465 280.41 189.131 280.41 188.759C280.41 188.378 280.326 188.038 280.158 187.74C279.993 187.439 279.766 187.202 279.476 187.029C279.187 186.855 278.856 186.767 278.484 186.764C278.217 186.761 277.942 186.803 277.661 186.888C277.38 186.97 277.148 187.077 276.967 187.208L275.978 187.088L276.506 182.793H281.04V183.73H277.393L277.086 186.304H277.137C277.316 186.162 277.54 186.044 277.81 185.95C278.08 185.857 278.361 185.81 278.654 185.81C279.188 185.81 279.664 185.938 280.082 186.193C280.502 186.446 280.832 186.793 281.07 187.233C281.312 187.673 281.432 188.176 281.432 188.742C281.432 189.298 281.307 189.796 281.057 190.233C280.81 190.668 280.469 191.011 280.035 191.264C279.6 191.514 279.106 191.639 278.552 191.639Z" fill="black"/>
<path d="M321.286 171V165" stroke="black"/>
<path d="M321.343 191.639C320.985 191.634 320.627 191.565 320.269 191.435C319.911 191.304 319.584 191.084 319.289 190.774C318.993 190.462 318.756 190.04 318.577 189.509C318.398 188.975 318.309 188.304 318.309 187.497C318.309 186.725 318.381 186.04 318.526 185.443C318.671 184.844 318.881 184.34 319.157 183.931C319.432 183.519 319.765 183.206 320.154 182.993C320.546 182.78 320.988 182.673 321.479 182.673C321.968 182.673 322.402 182.771 322.783 182.967C323.167 183.161 323.479 183.431 323.721 183.777C323.962 184.124 324.118 184.523 324.189 184.975H323.15C323.053 184.583 322.865 184.257 322.587 183.999C322.309 183.74 321.939 183.611 321.479 183.611C320.803 183.611 320.27 183.905 319.881 184.493C319.495 185.081 319.3 185.906 319.297 186.969H319.365C319.525 186.727 319.713 186.521 319.932 186.351C320.154 186.178 320.398 186.044 320.665 185.95C320.932 185.857 321.215 185.81 321.513 185.81C322.013 185.81 322.471 185.935 322.885 186.185C323.3 186.432 323.632 186.774 323.882 187.212C324.132 187.646 324.257 188.145 324.257 188.708C324.257 189.247 324.137 189.742 323.895 190.19C323.654 190.636 323.314 190.992 322.877 191.256C322.442 191.517 321.931 191.645 321.343 191.639ZM321.343 190.702C321.701 190.702 322.022 190.612 322.306 190.433C322.593 190.254 322.819 190.014 322.983 189.713C323.151 189.412 323.235 189.077 323.235 188.708C323.235 188.347 323.154 188.019 322.992 187.723C322.833 187.425 322.613 187.188 322.331 187.011C322.053 186.835 321.735 186.747 321.377 186.747C321.107 186.747 320.855 186.801 320.623 186.909C320.39 187.014 320.185 187.159 320.009 187.344C319.836 187.529 319.699 187.74 319.6 187.979C319.5 188.215 319.451 188.463 319.451 188.725C319.451 189.071 319.532 189.395 319.694 189.696C319.858 189.997 320.083 190.24 320.367 190.425C320.654 190.609 320.979 190.702 321.343 190.702Z" fill="black"/>
<path d="M364 171V165" stroke="black"/>
<path d="M361.748 191.52L365.652 183.798V183.73H361.152V182.793H366.743V183.781L362.856 191.52H361.748Z" fill="black"/>
<path d="M406.714 171V165" stroke="black"/>
<path d="M406.716 191.639C406.131 191.639 405.614 191.536 405.165 191.328C404.719 191.118 404.371 190.83 404.121 190.463C403.871 190.094 403.747 189.673 403.75 189.202C403.747 188.833 403.82 188.492 403.967 188.179C404.115 187.864 404.317 187.601 404.572 187.391C404.831 187.178 405.119 187.043 405.437 186.986V186.935C405.02 186.827 404.687 186.592 404.44 186.232C404.193 185.868 404.071 185.455 404.074 184.992C404.071 184.548 404.183 184.152 404.41 183.803C404.638 183.453 404.95 183.178 405.348 182.976C405.749 182.774 406.205 182.673 406.716 182.673C407.222 182.673 407.673 182.774 408.071 182.976C408.469 183.178 408.781 183.453 409.009 183.803C409.239 184.152 409.355 184.548 409.358 184.992C409.355 185.455 409.229 185.868 408.979 186.232C408.732 186.592 408.403 186.827 407.994 186.935V186.986C408.31 187.043 408.594 187.178 408.847 187.391C409.099 187.601 409.301 187.864 409.452 188.179C409.602 188.492 409.679 188.833 409.682 189.202C409.679 189.673 409.551 190.094 409.298 190.463C409.048 190.83 408.7 191.118 408.254 191.328C407.811 191.536 407.298 191.639 406.716 191.639ZM406.716 190.702C407.111 190.702 407.452 190.638 407.739 190.51C408.026 190.382 408.247 190.202 408.403 189.969C408.56 189.736 408.639 189.463 408.642 189.151C408.639 188.821 408.554 188.53 408.386 188.277C408.219 188.024 407.99 187.825 407.7 187.681C407.413 187.536 407.085 187.463 406.716 187.463C406.344 187.463 406.011 187.536 405.719 187.681C405.429 187.825 405.2 188.024 405.033 188.277C404.868 188.53 404.787 188.821 404.79 189.151C404.787 189.463 404.862 189.736 405.016 189.969C405.172 190.202 405.395 190.382 405.685 190.51C405.974 190.638 406.318 190.702 406.716 190.702ZM406.716 186.56C407.028 186.56 407.305 186.497 407.547 186.372C407.791 186.247 407.983 186.073 408.122 185.848C408.261 185.624 408.332 185.361 408.335 185.06C408.332 184.764 408.263 184.507 408.126 184.288C407.99 184.067 407.801 183.896 407.56 183.777C407.318 183.655 407.037 183.594 406.716 183.594C406.389 183.594 406.104 183.655 405.859 183.777C405.615 183.896 405.426 184.067 405.293 184.288C405.159 184.507 405.094 184.764 405.097 185.06C405.094 185.361 405.16 185.624 405.297 185.848C405.436 186.073 405.628 186.247 405.872 186.372C406.116 186.497 406.398 186.56 406.716 186.56Z" fill="black"/>
<path d="M449.429 171V165" stroke="black"/>
<path d="M449.366 182.673C449.724 182.676 450.082 182.744 450.44 182.878C450.798 183.011 451.125 183.233 451.42 183.543C451.716 183.85 451.953 184.269 452.132 184.8C452.311 185.331 452.4 185.997 452.4 186.798C452.4 187.574 452.326 188.263 452.179 188.865C452.034 189.465 451.824 189.97 451.548 190.382C451.275 190.794 450.943 191.107 450.551 191.32C450.162 191.533 449.721 191.639 449.23 191.639C448.741 191.639 448.305 191.543 447.922 191.35C447.541 191.154 447.228 190.882 446.984 190.536C446.743 190.186 446.588 189.781 446.52 189.321H447.559C447.653 189.722 447.839 190.053 448.118 190.314C448.399 190.573 448.77 190.702 449.23 190.702C449.903 190.702 450.434 190.408 450.824 189.82C451.216 189.232 451.412 188.401 451.412 187.327H451.344C451.184 187.565 450.995 187.771 450.777 187.945C450.558 188.118 450.315 188.252 450.048 188.345C449.781 188.439 449.497 188.486 449.196 188.486C448.696 188.486 448.237 188.362 447.819 188.115C447.405 187.865 447.072 187.523 446.822 187.088C446.575 186.651 446.451 186.151 446.451 185.588C446.451 185.054 446.571 184.565 446.809 184.122C447.051 183.676 447.389 183.321 447.824 183.057C448.261 182.793 448.775 182.665 449.366 182.673ZM449.366 183.611C449.008 183.611 448.686 183.7 448.399 183.879C448.115 184.056 447.889 184.294 447.721 184.595C447.557 184.894 447.474 185.225 447.474 185.588C447.474 185.952 447.554 186.283 447.713 186.581C447.875 186.877 448.095 187.112 448.373 187.288C448.655 187.462 448.974 187.548 449.332 187.548C449.602 187.548 449.853 187.496 450.086 187.391C450.319 187.283 450.522 187.136 450.696 186.952C450.872 186.764 451.01 186.553 451.109 186.317C451.209 186.078 451.258 185.83 451.258 185.571C451.258 185.23 451.176 184.911 451.011 184.612C450.849 184.314 450.625 184.073 450.338 183.888C450.054 183.703 449.73 183.611 449.366 183.611Z" fill="black"/>
<path d="M492.143 171V165" stroke="black"/>
<path d="M489.575 182.793V191.52H488.519V183.901H488.467L486.337 185.315V184.242L488.519 182.793H489.575ZM494.932 191.639C494.29 191.639 493.743 191.465 493.291 191.115C492.84 190.763 492.494 190.253 492.256 189.585C492.017 188.915 491.898 188.105 491.898 187.156C491.898 186.213 492.017 185.408 492.256 184.74C492.497 184.07 492.844 183.558 493.296 183.206C493.75 182.851 494.296 182.673 494.932 182.673C495.568 182.673 496.112 182.851 496.564 183.206C497.019 183.558 497.365 184.07 497.604 184.74C497.845 185.408 497.966 186.213 497.966 187.156C497.966 188.105 497.847 188.915 497.608 189.585C497.369 190.253 497.024 190.763 496.573 191.115C496.121 191.465 495.574 191.639 494.932 191.639ZM494.932 190.702C495.568 190.702 496.063 190.395 496.415 189.781C496.767 189.168 496.943 188.293 496.943 187.156C496.943 186.401 496.862 185.757 496.7 185.226C496.541 184.695 496.311 184.29 496.01 184.011C495.712 183.733 495.352 183.594 494.932 183.594C494.301 183.594 493.808 183.905 493.453 184.527C493.098 185.146 492.921 186.023 492.921 187.156C492.921 187.912 493 188.554 493.159 189.083C493.318 189.611 493.547 190.013 493.845 190.288C494.146 190.564 494.509 190.702 494.932 190.702Z" fill="black"/>
<path d="M534.857 171V165" stroke="black"/>
<path d="M533.251 182.793V191.52H532.194V183.901H532.143L530.012 185.315V184.242L532.194 182.793H533.251ZM538.829 182.793V191.52H537.772V183.901H537.721L535.59 185.315V184.242L537.772 182.793H538.829Z" fill="black"/>
<path d="M577.571 171V165" stroke="black"/>
<path d="M575.121 182.793V191.52H574.064V183.901H574.013L571.882 185.315V184.242L574.064 182.793H575.121ZM577.631 191.52V190.753L580.512 187.6C580.85 187.23 581.128 186.909 581.347 186.636C581.566 186.361 581.728 186.102 581.833 185.861C581.941 185.617 581.995 185.361 581.995 185.094C581.995 184.787 581.921 184.521 581.773 184.297C581.628 184.073 581.429 183.899 581.177 183.777C580.924 183.655 580.64 183.594 580.324 183.594C579.989 183.594 579.696 183.663 579.446 183.803C579.199 183.939 579.007 184.131 578.871 184.378C578.738 184.625 578.671 184.915 578.671 185.247H577.665C577.665 184.736 577.783 184.287 578.019 183.901C578.255 183.514 578.576 183.213 578.982 182.997C579.391 182.781 579.85 182.673 580.358 182.673C580.87 182.673 581.323 182.781 581.718 182.997C582.113 183.213 582.422 183.504 582.647 183.871C582.871 184.237 582.983 184.645 582.983 185.094C582.983 185.415 582.925 185.729 582.809 186.036C582.695 186.34 582.496 186.679 582.212 187.054C581.931 187.426 581.54 187.881 581.04 188.418L579.08 190.514V190.583H583.137V191.52H577.631Z" fill="black"/>
<path d="M620.286 171V165" stroke="black"/>
<path d="M617.648 182.793V191.52H616.591V183.901H616.54L614.409 185.315V184.242L616.591 182.793H617.648ZM623.107 191.639C622.544 191.639 622.043 191.543 621.602 191.35C621.165 191.156 620.817 190.888 620.558 190.544C620.303 190.198 620.164 189.796 620.141 189.338H621.215C621.237 189.619 621.334 189.862 621.504 190.067C621.675 190.269 621.898 190.425 622.173 190.536C622.449 190.646 622.754 190.702 623.09 190.702C623.465 190.702 623.797 190.636 624.087 190.506C624.377 190.375 624.604 190.193 624.769 189.96C624.933 189.727 625.016 189.458 625.016 189.151C625.016 188.83 624.936 188.547 624.777 188.303C624.618 188.056 624.385 187.862 624.078 187.723C623.772 187.584 623.397 187.514 622.953 187.514H622.254V186.577H622.953C623.3 186.577 623.604 186.514 623.865 186.389C624.129 186.264 624.335 186.088 624.483 185.861C624.634 185.634 624.709 185.367 624.709 185.06C624.709 184.764 624.644 184.507 624.513 184.288C624.382 184.07 624.198 183.899 623.959 183.777C623.723 183.655 623.445 183.594 623.124 183.594C622.823 183.594 622.539 183.649 622.272 183.76C622.007 183.868 621.791 184.026 621.624 184.233C621.456 184.438 621.365 184.685 621.351 184.975H620.328C620.345 184.517 620.483 184.117 620.742 183.773C621 183.426 621.338 183.156 621.756 182.963C622.176 182.77 622.638 182.673 623.141 182.673C623.681 182.673 624.144 182.783 624.53 183.002C624.916 183.217 625.213 183.503 625.421 183.858C625.628 184.213 625.732 184.597 625.732 185.009C625.732 185.5 625.602 185.919 625.344 186.266C625.088 186.612 624.74 186.852 624.3 186.986V187.054C624.851 187.145 625.281 187.379 625.591 187.757C625.901 188.132 626.056 188.597 626.056 189.151C626.056 189.625 625.926 190.051 625.668 190.429C625.412 190.804 625.063 191.1 624.62 191.315C624.176 191.531 623.672 191.639 623.107 191.639Z" fill="black"/>
<path d="M663 171V165" stroke="black"/>
<path d="M657.333 182.793V191.52H656.276V183.901H656.225L654.094 185.315V184.242L656.276 182.793H657.333ZM659.638 189.73V188.861L663.474 182.793H664.104V184.139H663.678L660.78 188.725V188.793H665.945V189.73H659.638ZM663.746 191.52V189.466V189.061V182.793H664.752V191.52H663.746Z" fill="black"/>
<path d="M65 5V165" stroke="black"/>
<path d="M59 165H65" stroke="black"/>
<path d="M50.25 169.379C49.608 169.379 49.0611 169.205 48.6094 168.855C48.1577 168.503 47.8125 167.993 47.5739 167.325C47.3352 166.655 47.2159 165.845 47.2159 164.896C47.2159 163.953 47.3352 163.148 47.5739 162.48C47.8153 161.81 48.1619 161.298 48.6136 160.946C49.0682 160.591 49.6136 160.413 50.25 160.413C50.8864 160.413 51.4304 160.591 51.8821 160.946C52.3366 161.298 52.6832 161.81 52.9219 162.48C53.1634 163.148 53.2841 163.953 53.2841 164.896C53.2841 165.845 53.1648 166.655 52.9261 167.325C52.6875 167.993 52.3423 168.503 51.8906 168.855C51.4389 169.205 50.892 169.379 50.25 169.379ZM50.25 168.442C50.8864 168.442 51.3807 168.135 51.733 167.521C52.0852 166.908 52.2614 166.033 52.2614 164.896C52.2614 164.141 52.1804 163.497 52.0185 162.966C51.8594 162.435 51.6293 162.03 51.3281 161.751C51.0298 161.473 50.6705 161.334 50.25 161.334C49.6193 161.334 49.1264 161.645 48.7713 162.267C48.4162 162.886 48.2386 163.763 48.2386 164.896C48.2386 165.652 48.3182 166.294 48.4773 166.822C48.6364 167.351 48.8651 167.753 49.1634 168.028C49.4645 168.304 49.8267 168.442 50.25 168.442Z" fill="black"/>
<path d="M59 125H65" stroke="black"/>
<path d="M37.5927 120.533V129.26H36.5359V121.641H36.4847L34.354 123.055V121.982L36.5359 120.533H37.5927ZM42.8299 129.379C42.3299 129.379 41.8796 129.28 41.479 129.081C41.0785 128.882 40.7575 128.609 40.516 128.263C40.2745 127.916 40.1424 127.521 40.1197 127.078H41.1424C41.1822 127.473 41.3612 127.8 41.6793 128.058C42.0004 128.314 42.3839 128.442 42.8299 128.442C43.1879 128.442 43.506 128.358 43.7844 128.19C44.0657 128.023 44.2859 127.793 44.445 127.5C44.6069 127.205 44.6879 126.871 44.6879 126.499C44.6879 126.118 44.604 125.778 44.4364 125.48C44.2717 125.179 44.0444 124.942 43.7546 124.769C43.4648 124.595 43.1339 124.507 42.7617 124.504C42.4947 124.501 42.2205 124.543 41.9393 124.628C41.658 124.71 41.4265 124.817 41.2447 124.948L40.256 124.828L40.7844 120.533H45.3185V121.47H41.6708L41.364 124.044H41.4151C41.5941 123.902 41.8185 123.784 42.0884 123.69C42.3583 123.597 42.6396 123.55 42.9322 123.55C43.4663 123.55 43.9421 123.678 44.3597 123.933C44.7802 124.186 45.1097 124.533 45.3484 124.973C45.5898 125.413 45.7106 125.916 45.7106 126.482C45.7106 127.038 45.5856 127.536 45.3356 127.973C45.0884 128.408 44.7475 128.751 44.3129 129.004C43.8782 129.254 43.3839 129.379 42.8299 129.379ZM50.25 129.379C49.608 129.379 49.0611 129.205 48.6094 128.855C48.1577 128.503 47.8125 127.993 47.5739 127.325C47.3352 126.655 47.2159 125.845 47.2159 124.896C47.2159 123.953 47.3352 123.148 47.5739 122.48C47.8153 121.81 48.1619 121.298 48.6136 120.946C49.0682 120.591 49.6136 120.413 50.25 120.413C50.8864 120.413 51.4304 120.591 51.8821 120.946C52.3366 121.298 52.6832 121.81 52.9219 122.48C53.1634 123.148 53.2841 123.953 53.2841 124.896C53.2841 125.845 53.1648 126.655 52.9261 127.325C52.6875 127.993 52.3423 128.503 51.8906 128.855C51.4389 129.205 50.892 129.379 50.25 129.379ZM50.25 128.442C50.8864 128.442 51.3807 128.135 51.733 127.521C52.0852 126.908 52.2614 126.033 52.2614 124.896C52.2614 124.141 52.1804 123.497 52.0185 122.966C51.8594 122.435 51.6293 122.03 51.3281 121.751C51.0298 121.473 50.6705 121.334 50.25 121.334C49.6193 121.334 49.1264 121.645 48.7713 122.267C48.4162 122.886 48.2386 123.763 48.2386 124.896C48.2386 125.652 48.3182 126.294 48.4773 126.823C48.6364 127.351 48.8651 127.753 49.1634 128.028C49.4645 128.304 49.8267 128.442 50.25 128.442Z" fill="black"/>
<path d="M59 85H65" stroke="black"/>
<path d="M35.2116 89.3793C34.6491 89.3793 34.1477 89.2827 33.7074 89.0895C33.2699 88.8964 32.9219 88.6279 32.6634 88.2841C32.4077 87.9376 32.2685 87.5356 32.2457 87.0782H33.3196C33.3423 87.3594 33.4389 87.6023 33.6094 87.8069C33.7798 88.0086 34.0028 88.1648 34.2784 88.2756C34.554 88.3864 34.8594 88.4418 35.1946 88.4418C35.5696 88.4418 35.902 88.3765 36.1918 88.2458C36.4815 88.1151 36.7088 87.9333 36.8736 87.7003C37.0384 87.4674 37.1207 87.1975 37.1207 86.8907C37.1207 86.5697 37.0412 86.287 36.8821 86.0427C36.723 85.7955 36.4901 85.6023 36.1832 85.4631C35.8764 85.3239 35.5014 85.2543 35.0582 85.2543H34.3594V84.3168H35.0582C35.4048 84.3168 35.7088 84.2543 35.9702 84.1293C36.2344 84.0043 36.4403 83.8282 36.5881 83.6009C36.7386 83.3736 36.8139 83.1066 36.8139 82.7998C36.8139 82.5043 36.7486 82.2472 36.6179 82.0285C36.4872 81.8097 36.3026 81.6393 36.0639 81.5171C35.8281 81.3949 35.5497 81.3339 35.2287 81.3339C34.9276 81.3339 34.6435 81.3893 34.3764 81.5001C34.1122 81.608 33.8963 81.7657 33.7287 81.9731C33.5611 82.1776 33.4702 82.4248 33.456 82.7145H32.4332C32.4503 82.2572 32.5881 81.8566 32.8466 81.5128C33.1051 81.1663 33.4432 80.8964 33.8608 80.7032C34.2813 80.51 34.7429 80.4134 35.2457 80.4134C35.7855 80.4134 36.2486 80.5228 36.6349 80.7415C37.0213 80.9574 37.3182 81.243 37.5256 81.5981C37.733 81.9532 37.8366 82.3367 37.8366 82.7486C37.8366 83.2401 37.7074 83.6591 37.4489 84.0057C37.1932 84.3523 36.8452 84.5924 36.4048 84.7259V84.7941C36.956 84.885 37.3864 85.1194 37.696 85.4972C38.0057 85.8722 38.1605 86.3367 38.1605 86.8907C38.1605 87.3651 38.0313 87.7913 37.7727 88.1691C37.517 88.5441 37.1676 88.8395 36.7244 89.0555C36.2813 89.2714 35.777 89.3793 35.2116 89.3793ZM42.75 89.3793C42.108 89.3793 41.5611 89.2046 41.1094 88.8552C40.6577 88.5029 40.3125 87.993 40.0739 87.3253C39.8352 86.6549 39.7159 85.8452 39.7159 84.8964C39.7159 83.9532 39.8352 83.1478 40.0739 82.4802C40.3153 81.8097 40.6619 81.2984 41.1136 80.9461C41.5682 80.591 42.1136 80.4134 42.75 80.4134C43.3864 80.4134 43.9304 80.591 44.3821 80.9461C44.8366 81.2984 45.1832 81.8097 45.4219 82.4802C45.6634 83.1478 45.7841 83.9532 45.7841 84.8964C45.7841 85.8452 45.6648 86.6549 45.4261 87.3253C45.1875 87.993 44.8423 88.5029 44.3906 88.8552C43.9389 89.2046 43.392 89.3793 42.75 89.3793ZM42.75 88.4418C43.3864 88.4418 43.8807 88.135 44.233 87.5214C44.5852 86.9077 44.7614 86.0327 44.7614 84.8964C44.7614 84.1407 44.6804 83.4972 44.5185 82.966C44.3594 82.4347 44.1293 82.0299 43.8281 81.7515C43.5298 81.4731 43.1705 81.3339 42.75 81.3339C42.1193 81.3339 41.6264 81.6449 41.2713 82.2671C40.9162 82.8864 40.7386 83.7628 40.7386 84.8964C40.7386 85.652 40.8182 86.2941 40.9773 86.8225C41.1364 87.3509 41.3651 87.7529 41.6634 88.0285C41.9645 88.304 42.3267 88.4418 42.75 88.4418ZM50.25 89.3793C49.608 89.3793 49.0611 89.2046 48.6094 88.8552C48.1577 88.5029 47.8125 87.993 47.5739 87.3253C47.3352 86.6549 47.2159 85.8452 47.2159 84.8964C47.2159 83.9532 47.3352 83.1478 47.5739 82.4802C47.8153 81.8097 48.1619 81.2984 48.6136 80.9461C49.0682 80.591 49.6136 80.4134 50.25 80.4134C50.8864 80.4134 51.4304 80.591 51.8821 80.9461C52.3366 81.2984 52.6832 81.8097 52.9219 82.4802C53.1634 83.1478 53.2841 83.9532 53.2841 84.8964C53.2841 85.8452 53.1648 86.6549 52.9261 87.3253C52.6875 87.993 52.3423 88.5029 51.8906 88.8552C51.4389 89.2046 50.892 89.3793 50.25 89.3793ZM50.25 88.4418C50.8864 88.4418 51.3807 88.135 51.733 87.5214C52.0852 86.9077 52.2614 86.0327 52.2614 84.8964C52.2614 84.1407 52.1804 83.4972 52.0185 82.966C51.8594 82.4347 51.6293 82.0299 51.3281 81.7515C51.0298 81.4731 50.6705 81.3339 50.25 81.3339C49.6193 81.3339 49.1264 81.6449 48.7713 82.2671C48.4162 82.8864 48.2386 83.7628 48.2386 84.8964C48.2386 85.652 48.3182 86.2941 48.4773 86.8225C48.6364 87.3509 48.8651 87.7529 49.1634 88.0285C49.4645 88.304 49.8267 88.4418 50.25 88.4418Z" fill="black"/>
<path d="M59 45H65" stroke="black"/>
<path d="M32.1989 47.4702V46.6009L36.0341 40.5327H36.6648V41.8793H36.2386L33.3409 46.4645V46.5327H38.5057V47.4702H32.1989ZM36.3068 49.26V47.206V46.8012V40.5327H37.3125V49.26H36.3068ZM42.8299 49.3793C42.3299 49.3793 41.8796 49.2799 41.479 49.081C41.0785 48.8822 40.7575 48.6094 40.516 48.2628C40.2745 47.9162 40.1424 47.5214 40.1197 47.0782H41.1424C41.1822 47.4731 41.3612 47.7998 41.6793 48.0583C42.0004 48.314 42.3839 48.4418 42.8299 48.4418C43.1879 48.4418 43.506 48.358 43.7844 48.1904C44.0657 48.0228 44.2859 47.7927 44.445 47.5001C44.6069 47.2046 44.6879 46.8708 44.6879 46.4986C44.6879 46.118 44.604 45.7785 44.4364 45.4802C44.2717 45.179 44.0444 44.9418 43.7546 44.7685C43.4648 44.5952 43.1339 44.5072 42.7617 44.5043C42.4947 44.5015 42.2205 44.5427 41.9393 44.6279C41.658 44.7103 41.4265 44.8168 41.2447 44.9475L40.256 44.8282L40.7844 40.5327H45.3185V41.4702H41.6708L41.364 44.0441H41.4151C41.5941 43.902 41.8185 43.7841 42.0884 43.6904C42.3583 43.5966 42.6396 43.5498 42.9322 43.5498C43.4663 43.5498 43.9421 43.6776 44.3597 43.9333C44.7802 44.1861 45.1097 44.5327 45.3484 44.9731C45.5898 45.4134 45.7106 45.9162 45.7106 46.4816C45.7106 47.0384 45.5856 47.5356 45.3356 47.9731C45.0884 48.4077 44.7475 48.7515 44.3129 49.0043C43.8782 49.2543 43.3839 49.3793 42.8299 49.3793ZM50.25 49.3793C49.608 49.3793 49.0611 49.2046 48.6094 48.8552C48.1577 48.5029 47.8125 47.993 47.5739 47.3253C47.3352 46.6549 47.2159 45.8452 47.2159 44.8964C47.2159 43.9532 47.3352 43.1478 47.5739 42.4802C47.8153 41.8097 48.1619 41.2984 48.6136 40.9461C49.0682 40.591 49.6136 40.4134 50.25 40.4134C50.8864 40.4134 51.4304 40.591 51.8821 40.9461C52.3366 41.2984 52.6832 41.8097 52.9219 42.4802C53.1634 43.1478 53.2841 43.9532 53.2841 44.8964C53.2841 45.8452 53.1648 46.6549 52.9261 47.3253C52.6875 47.993 52.3423 48.5029 51.8906 48.8552C51.4389 49.2046 50.892 49.3793 50.25 49.3793ZM50.25 48.4418C50.8864 48.4418 51.3807 48.135 51.733 47.5214C52.0852 46.9077 52.2614 46.0327 52.2614 44.8964C52.2614 44.1407 52.1804 43.4972 52.0185 42.966C51.8594 42.4347 51.6293 42.0299 51.3281 41.7515C51.0298 41.4731 50.6705 41.3339 50.25 41.3339C49.6193 41.3339 49.1264 41.6449 48.7713 42.2671C48.4162 42.8864 48.2386 43.7628 48.2386 44.8964C48.2386 45.652 48.3182 46.2941 48.4773 46.8225C48.6364 47.3509 48.8651 47.7529 49.1634 48.0285C49.4645 48.304 49.8267 48.4418 50.25 48.4418Z" fill="black"/>
<path d="M59 5H65" stroke="black"/>
<path d="M35.3129 13.5746C34.9549 13.5689 34.5969 13.5008 34.239 13.3701C33.881 13.2394 33.5543 13.0192 33.2589 12.7096C32.9634 12.3971 32.7262 11.9752 32.5472 11.4439C32.3683 10.9099 32.2788 10.2394 32.2788 9.43259C32.2788 8.65986 32.3512 7.9752 32.4961 7.37861C32.641 6.77918 32.8512 6.27491 33.1268 5.86582C33.4023 5.45389 33.7347 5.14139 34.1239 4.92832C34.516 4.71526 34.9577 4.60872 35.4492 4.60872C35.9379 4.60872 36.3725 4.70673 36.7532 4.90276C37.1367 5.09594 37.4492 5.36582 37.6907 5.71241C37.9322 6.05901 38.0884 6.45815 38.1594 6.90986H37.1197C37.0231 6.51781 36.8356 6.19253 36.5572 5.93401C36.2788 5.67548 35.9094 5.54622 35.4492 5.54622C34.7731 5.54622 34.2404 5.84026 33.8512 6.42832C33.4648 7.01639 33.2702 7.84168 33.2674 8.90418H33.3356C33.4947 8.6627 33.6836 8.45673 33.9023 8.28628C34.1239 8.11298 34.3683 7.97946 34.6353 7.88571C34.9023 7.79196 35.185 7.74509 35.4833 7.74509C35.9833 7.74509 36.4407 7.87009 36.8555 8.12009C37.2702 8.36724 37.6026 8.70957 37.8526 9.14707C38.1026 9.58173 38.2276 10.0803 38.2276 10.6428C38.2276 11.1826 38.1069 11.6769 37.8654 12.1258C37.6239 12.5718 37.2844 12.9269 36.8469 13.1911C36.4123 13.4525 35.9009 13.5803 35.3129 13.5746ZM35.3129 12.6371C35.6708 12.6371 35.9918 12.5476 36.2759 12.3687C36.5629 12.1897 36.7887 11.9496 36.9535 11.6485C37.1211 11.3474 37.2049 11.0121 37.2049 10.6428C37.2049 10.282 37.1239 9.95389 36.962 9.65844C36.8029 9.36014 36.5827 9.12293 36.3015 8.94679C36.0231 8.77065 35.7049 8.68259 35.3469 8.68259C35.0771 8.68259 34.8256 8.73656 34.5927 8.84452C34.3597 8.94963 34.1552 9.09452 33.979 9.27918C33.8058 9.46384 33.6694 9.67548 33.57 9.91412C33.4705 10.1499 33.4208 10.3985 33.4208 10.6599C33.4208 11.0064 33.5018 11.3303 33.6637 11.6314C33.8285 11.9326 34.0529 12.1755 34.337 12.3601C34.6239 12.5448 34.9492 12.6371 35.3129 12.6371ZM42.75 13.5746C42.108 13.5746 41.5611 13.3999 41.1094 13.0505C40.6577 12.6982 40.3125 12.1883 40.0739 11.5207C39.8352 10.8502 39.7159 10.0405 39.7159 9.09168C39.7159 8.14849 39.8352 7.3431 40.0739 6.67548C40.3153 6.00503 40.6619 5.49366 41.1136 5.14139C41.5682 4.78628 42.1136 4.60872 42.75 4.60872C43.3864 4.60872 43.9304 4.78628 44.3821 5.14139C44.8366 5.49366 45.1832 6.00503 45.4219 6.67548C45.6634 7.3431 45.7841 8.14849 45.7841 9.09168C45.7841 10.0405 45.6648 10.8502 45.4261 11.5207C45.1875 12.1883 44.8423 12.6982 44.3906 13.0505C43.9389 13.3999 43.392 13.5746 42.75 13.5746ZM42.75 12.6371C43.3864 12.6371 43.8807 12.3303 44.233 11.7167C44.5852 11.103 44.7614 10.228 44.7614 9.09168C44.7614 8.33599 44.6804 7.69253 44.5185 7.16128C44.3594 6.63003 44.1293 6.2252 43.8281 5.94679C43.5298 5.66838 43.1705 5.52918 42.75 5.52918C42.1193 5.52918 41.6264 5.84026 41.2713 6.46241C40.9162 7.08173 40.7386 7.95815 40.7386 9.09168C40.7386 9.84736 40.8182 10.4894 40.9773 11.0178C41.1364 11.5462 41.3651 11.9482 41.6634 12.2238C41.9645 12.4993 42.3267 12.6371 42.75 12.6371ZM50.25 13.5746C49.608 13.5746 49.0611 13.3999 48.6094 13.0505C48.1577 12.6982 47.8125 12.1883 47.5739 11.5207C47.3352 10.8502 47.2159 10.0405 47.2159 9.09168C47.2159 8.14849 47.3352 7.3431 47.5739 6.67548C47.8153 6.00503 48.1619 5.49366 48.6136 5.14139C49.0682 4.78628 49.6136 4.60872 50.25 4.60872C50.8864 4.60872 51.4304 4.78628 51.8821 5.14139C52.3366 5.49366 52.6832 6.00503 52.9219 6.67548C53.1634 7.3431 53.2841 8.14849 53.2841 9.09168C53.2841 10.0405 53.1648 10.8502 52.9261 11.5207C52.6875 12.1883 52.3423 12.6982 51.8906 13.0505C51.4389 13.3999 50.892 13.5746 50.25 13.5746ZM50.25 12.6371C50.8864 12.6371 51.3807 12.3303 51.733 11.7167C52.0852 11.103 52.2614 10.228 52.2614 9.09168C52.2614 8.33599 52.1804 7.69253 52.0185 7.16128C51.8594 6.63003 51.6293 6.2252 51.3281 5.94679C51.0298 5.66838 50.6705 5.52918 50.25 5.52918C49.6193 5.52918 49.1264 5.84026 48.7713 6.46241C48.4162 7.08173 48.2386 7.95815 48.2386 9.09168C48.2386 9.84736 48.3182 10.4894 48.4773 11.0178C48.6364 11.5462 48.8651 11.9482 49.1634 12.2238C49.4645 12.4993 49.8267 12.6371 50.25 12.6371Z" fill="black"/>
<path d="M65 165H663" stroke="#CCCCCC"/>
<path d="M65 125H663" stroke="#CCCCCC"/>
<path d="M65 85H663" stroke="#CCCCCC"/>
<path d="M65 45H663" stroke="#CCCCCC"/>
<path d="M65 5H663" stroke="#CCCCCC"/>
<path d="M65 5V165" stroke="#CCCCCC"/>
<path d="M107.714 5V165" stroke="#CCCCCC"/>
<path d="M150.429 5V165" stroke="#CCCCCC"/>
<path d="M193.143 5V165" stroke="#CCCCCC"/>
<path d="M235.857 5V165" stroke="#CCCCCC"/>
<path d="M278.571 5V165" stroke="#CCCCCC"/>
<path d="M321.286 5V165" stroke="#CCCCCC"/>
<path d="M364 5V165" stroke="#CCCCCC"/>
<path d="M406.714 5V165" stroke="#CCCCCC"/>
<path d="M449.429 5V165" stroke="#CCCCCC"/>
<path d="M492.143 5V165" stroke="#CCCCCC"/>
<path d="M534.857 5V165" stroke="#CCCCCC"/>
<path d="M577.571 5V165" stroke="#CCCCCC"/>
<path d="M620.286 5V165" stroke="#CCCCCC"/>
<path d="M663 5V165" stroke="#CCCCCC"/>
<path d="M65 112.2L107.714 151.4L150.429 41.8L193.143 69.2667L235.857 122.067L278.571 54.8667L321.286 131.4L364 147.667L406.714 66.8667L449.429 75.4L492.143 41.8L534.857 113L577.571 49L620.286 91.1333L663 159.933" stroke="#C60712"/>
<path d="M65 115.2C66.6569 115.2 68 113.857 68 112.2C68 110.543 66.6569 109.2 65 109.2C63.3431 109.2 62 110.543 62 112.2C62 113.857 63.3431 115.2 65 115.2Z" fill="white" stroke="#C60712"/>
<path d="M107.714 154.4C109.371 154.4 110.714 153.057 110.714 151.4C110.714 149.743 109.371 148.4 107.714 148.4C106.057 148.4 104.714 149.743 104.714 151.4C104.714 153.057 106.057 154.4 107.714 154.4Z" fill="white" stroke="#C60712"/>
<path d="M150.429 44.8C152.085 44.8 153.429 43.4569 153.429 41.8C153.429 40.1431 152.085 38.8 150.429 38.8C148.772 38.8 147.429 40.1431 147.429 41.8C147.429 43.4569 148.772 44.8 150.429 44.8Z" fill="white" stroke="#C60712"/>
<path d="M193.143 72.2667C194.8 72.2667 196.143 70.9235 196.143 69.2667C196.143 67.6098 194.8 66.2667 193.143 66.2667C191.486 66.2667 190.143 67.6098 190.143 69.2667C190.143 70.9235 191.486 72.2667 193.143 72.2667Z" fill="white" stroke="#C60712"/>
<path d="M235.857 125.067C237.514 125.067 238.857 123.724 238.857 122.067C238.857 120.41 237.514 119.067 235.857 119.067C234.2 119.067 232.857 120.41 232.857 122.067C232.857 123.724 234.2 125.067 235.857 125.067Z" fill="white" stroke="#C60712"/>
<path d="M278.571 57.8667C280.228 57.8667 281.571 56.5235 281.571 54.8667C281.571 53.2098 280.228 51.8667 278.571 51.8667C276.915 51.8667 275.571 53.2098 275.571 54.8667C275.571 56.5235 276.915 57.8667 278.571 57.8667Z" fill="white" stroke="#C60712"/>
<path d="M321.286 134.4C322.943 134.4 324.286 133.057 324.286 131.4C324.286 129.743 322.943 128.4 321.286 128.4C319.629 128.4 318.286 129.743 318.286 131.4C318.286 133.057 319.629 134.4 321.286 134.4Z" fill="white" stroke="#C60712"/>
<path d="M364 150.667C365.657 150.667 367 149.324 367 147.667C367 146.01 365.657 144.667 364 144.667C362.343 144.667 361 146.01 361 147.667C361 149.324 362.343 150.667 364 150.667Z" fill="white" stroke="#C60712"/>
<path d="M406.714 69.8667C408.371 69.8667 409.714 68.5235 409.714 66.8667C409.714 65.2098 408.371 63.8667 406.714 63.8667C405.057 63.8667 403.714 65.2098 403.714 66.8667C403.714 68.5235 405.057 69.8667 406.714 69.8667Z" fill="white" stroke="#C60712"/>
<path d="M449.429 78.4C451.085 78.4 452.429 77.0569 452.429 75.4C452.429 73.7431 451.085 72.4 449.429 72.4C447.772 72.4 446.429 73.7431 446.429 75.4C446.429 77.0569 447.772 78.4 449.429 78.4Z" fill="white" stroke="#C60712"/>
<path d="M492.143 44.8C493.8 44.8 495.143 43.4569 495.143 41.8C495.143 40.1431 493.8 38.8 492.143 38.8C490.486 38.8 489.143 40.1431 489.143 41.8C489.143 43.4569 490.486 44.8 492.143 44.8Z" fill="white" stroke="#C60712"/>
<path d="M534.857 116C536.514 116 537.857 114.657 537.857 113C537.857 111.343 536.514 110 534.857 110C533.2 110 531.857 111.343 531.857 113C531.857 114.657 533.2 116 534.857 116Z" fill="white" stroke="#C60712"/>
<path d="M577.571 52C579.228 52 580.571 50.6569 580.571 49C580.571 47.3431 579.228 46 577.571 46C575.915 46 574.571 47.3431 574.571 49C574.571 50.6569 575.915 52 577.571 52Z" fill="white" stroke="#C60712"/>
<path d="M620.286 94.1333C621.943 94.1333 623.286 92.7902 623.286 91.1333C623.286 89.4765 621.943 88.1333 620.286 88.1333C618.629 88.1333 617.286 89.4765 617.286 91.1333C617.286 92.7902 618.629 94.1333 620.286 94.1333Z" fill="white" stroke="#C60712"/>
<path d="M663 162.933C664.657 162.933 666 161.59 666 159.933C666 158.276 664.657 156.933 663 156.933C661.343 156.933 660 158.276 660 159.933C660 161.59 661.343 162.933 663 162.933Z" fill="white" stroke="#C60712"/>
</svg>
